<svg width="16px" height="20px" viewBox="0 0 16 20" fill="none" xmlns="http://www.w3.org/2000/svg" transform="rotate(0) scale(1, 1)">
<rect width="16" height="16" transform="translate(0 2)" fill="#ffffff" style="mix-blend-mode:multiply"/>
<path d="M8.5 13V9H6.5V10H7.5V13H6V14H10V13H8.5Z" fill="#000000"/>
<path d="M8 6C7.85167 6 7.70666 6.04399 7.58333 6.1264C7.45999 6.20881 7.36386 6.32595 7.30709 6.46299C7.25033 6.60004 7.23548 6.75084 7.26441 6.89632C7.29335 7.04181 7.36478 7.17544 7.46967 7.28033C7.57456 7.38522 7.7082 7.45665 7.85369 7.48559C7.99917 7.51453 8.14997 7.49968 8.28701 7.44291C8.42406 7.38615 8.54119 7.29002 8.6236 7.16668C8.70602 7.04334 8.75 6.89834 8.75 6.75C8.75 6.55109 8.67098 6.36033 8.53033 6.21967C8.38968 6.07902 8.19892 6 8 6Z" fill="#000000"/>
<path d="M8 17C6.61553 17 5.26216 16.5895 4.11101 15.8203C2.95987 15.0511 2.06266 13.9579 1.53285 12.6788C1.00303 11.3997 0.86441 9.99224 1.13451 8.63437C1.4046 7.2765 2.07129 6.02922 3.05026 5.05026C4.02922 4.07129 5.2765 3.4046 6.63437 3.13451C7.99224 2.86441 9.3997 3.00303 10.6788 3.53285C11.9579 4.06266 13.0511 4.95987 13.8203 6.11101C14.5895 7.26216 15 8.61553 15 10C15 11.8565 14.2625 13.637 12.9497 14.9497C11.637 16.2625 9.85652 17 8 17ZM8 4C6.81332 4 5.65328 4.3519 4.66658 5.01119C3.67989 5.67047 2.91085 6.60755 2.45673 7.7039C2.0026 8.80026 1.88378 10.0067 2.11529 11.1705C2.3468 12.3344 2.91825 13.4035 3.75736 14.2426C4.59648 15.0818 5.66558 15.6532 6.82946 15.8847C7.99335 16.1162 9.19975 15.9974 10.2961 15.5433C11.3925 15.0892 12.3295 14.3201 12.9888 13.3334C13.6481 12.3467 14 11.1867 14 10C14 8.4087 13.3679 6.88258 12.2426 5.75736C11.1174 4.63214 9.5913 4 8 4Z" fill="#000000"/>
</svg>