<svg width="124px" height="124px" viewBox="0 0 124 124" fill="none" xmlns="http://www.w3.org/2000/svg" transform="rotate(0) scale(1, 1)">
<g clip-path="url(#clip0_5434_27582)">
<rect width="124" height="124" fill="#ffffff" fill-opacity="0.01" style="mix-blend-mode:multiply"/>
<rect width="124" height="124" fill="#ffffff"/>
<path d="M120.122 117.645H89.1216C88.3504 117.645 87.7266 117.021 87.7266 116.25V106.02H7.74656V103.23H87.7266V98.27H19.3716C16.4653 98.27 14.1016 95.9062 14.1016 93V53.9632C7.05294 48.7668 2.47656 40.4046 2.47656 31C2.47656 15.2752 15.2718 2.47998 30.9966 2.47998C46.2563 2.47998 58.7532 14.5235 59.4817 29.605H104.622C107.528 29.605 109.892 31.9687 109.892 34.875V60.605H120.122C120.893 60.605 121.517 61.2289 121.517 62V116.25C121.517 117.021 120.893 117.645 120.122 117.645ZM90.5166 114.855H118.723V106.02H90.5166V114.855ZM90.5166 103.23H118.723V63.395H90.5166V103.23ZM16.8916 55.7845V93C16.8916 94.3679 18.0037 95.48 19.3716 95.48H87.7266V62C87.7266 61.2289 88.3504 60.605 89.1216 60.605H107.102V34.875C107.102 33.5071 105.989 32.395 104.622 32.395H59.4817C58.7532 47.4765 46.2524 59.52 30.9966 59.52C25.8699 59.52 21.0533 58.1599 16.8916 55.7845Z" fill="#474747"/>
<circle cx="31" cy="31" r="28" fill="#ffffff" stroke="#42be65" stroke-width="2"/>
<rect width="37" height="37" transform="translate(12 14)" fill="#ffffff" fill-opacity="0.01" style="mix-blend-mode:multiply"/>
<path d="M25.875 47.5313C25.6467 47.5301 25.4239 47.4614 25.2346 47.3339C25.0453 47.2063 24.898 47.0255 24.8112 46.8144L19.3191 33.6563H14.3125V31.3438H20.0938C20.322 31.3449 20.5449 31.4136 20.7342 31.5412C20.9235 31.6687 21.0708 31.8495 21.1575 32.0606L25.875 43.23L35.1944 18.2203C35.2771 17.999 35.4256 17.8083 35.6199 17.674C35.8142 17.5396 36.045 17.468 36.2812 17.4688C36.5197 17.4729 36.751 17.5507 36.9435 17.6915C37.136 17.8322 37.2803 18.0291 37.3566 18.255L41.7387 31.3438H46.6875V33.6563H40.9062C40.6638 33.6569 40.4274 33.5813 40.2303 33.4402C40.0332 33.2991 39.8854 33.0997 39.8078 32.87L36.2812 22.0938L26.9619 46.7797C26.8792 47.001 26.7307 47.1917 26.5364 47.326C26.3421 47.4604 26.1112 47.532 25.875 47.5313Z" fill="#46c66d"/>
</g>
<defs>
<clipPath id="clip0_5434_27582">
<rect width="124" height="124" fill="#ffffff"/>
</clipPath>
</defs>
</svg>