<svg width="81" height="80" viewBox="0 0 81 80" fill="none" xmlns="http://www.w3.org/2000/svg">
<rect width="81" height="80" fill="white" fill-opacity="0.01" style="mix-blend-mode:multiply"/>
<path fill-rule="evenodd" clip-rule="evenodd" d="M34.7282 45.6874C35.122 45.684 35.4966 45.5277 35.7697 45.253L52.2632 29.2343L58.8746 22.8154C59.4976 22.2108 60.3484 21.8822 61.228 21.9055C62.1076 21.9294 62.9391 22.3026 63.5265 22.9391C63.9313 23.3821 64.1872 23.9356 64.2578 24.5242C64.2578 24.5622 64.2578 24.6034 64.2654 24.6433C64.2812 24.793 64.2846 24.9446 64.2771 25.095C64.2771 25.1475 64.2668 25.2001 64.2626 25.2526V25.2519C64.2489 25.3956 64.2256 25.538 64.194 25.6783C64.1824 25.7302 64.1693 25.7807 64.1542 25.832C64.111 25.9823 64.0589 26.1306 63.9964 26.275C63.982 26.3102 63.9669 26.3461 63.9512 26.3801V26.3794C63.7707 26.7592 63.5223 27.1038 63.2191 27.3998L59.8207 30.6997L59.0214 31.4746L59.0132 31.4846V31.4919L40.3001 49.6538C40.0181 49.9185 39.8569 50.283 39.8528 50.6642C39.85 51.0467 40.0044 51.4125 40.2823 51.6819C40.5602 51.952 40.9375 52.1016 41.33 52.099C41.7231 52.095 42.0977 51.9393 42.3708 51.6646L61.075 33.5007C61.1347 33.4415 61.2033 33.401 61.2664 33.3484L61.2671 33.3491C61.8475 32.8755 62.5769 32.6094 63.3357 32.5968H63.4228C63.641 32.6021 63.8578 32.628 64.0705 32.6759C64.71 32.8229 65.2877 33.1568 65.7234 33.6344C66.0541 33.9976 66.2833 34.4393 66.3875 34.9142C66.6428 36.063 66.2771 37.2583 65.4181 38.0864L65.1258 38.3705L59.1854 44.1242C59.1724 44.1375 59.1689 44.1528 59.1566 44.1654L46.8999 56.068L46.9005 56.0687C46.6185 56.3334 46.4566 56.698 46.4539 57.0784C46.4498 57.4596 46.6041 57.8268 46.882 58.0968C47.1599 58.3662 47.5379 58.5165 47.9304 58.5132C48.3229 58.5099 48.6982 58.3529 48.9705 58.0789L61.2691 46.1437C61.7199 45.704 62.2976 45.4073 62.9254 45.2903L63.1139 45.2577L62.9673 45.2796C63.182 45.2424 63.4002 45.2271 63.6177 45.2344C63.6177 45.2344 64.0102 45.265 64.2036 45.3069C64.2784 45.3242 64.4109 45.3641 64.4795 45.3854L64.392 45.3588C64.945 45.5231 65.5285 45.8563 65.9169 46.2714C66.0541 46.4204 66.1755 46.5827 66.2778 46.7563C66.6208 47.4008 66.7402 48.1339 66.6201 48.8489C66.4987 49.564 66.1447 50.2225 65.6088 50.7267L45.7986 69.9568C45.3959 70.348 44.9801 70.7191 44.554 71.0743C44.4751 71.1389 44.3948 71.1981 44.3159 71.2626C43.9756 71.5366 43.6319 71.8014 43.2792 72.0548C43.1406 72.1526 42.9993 72.2464 42.86 72.3388C42.5581 72.5437 42.2528 72.7406 41.9434 72.9302C41.7732 73.0346 41.6037 73.133 41.4308 73.2335C41.1379 73.3965 40.8538 73.5528 40.5595 73.7058C40.366 73.8049 40.1718 73.9046 39.9742 73.9978C39.7018 74.1288 39.4253 74.2492 39.1468 74.3676C38.9258 74.4627 38.7077 74.5612 38.4792 74.6523C38.2514 74.7428 38.0051 74.8226 37.767 74.9064C37.4925 75.0028 37.2195 75.1033 36.9423 75.1911C36.8881 75.2077 36.8325 75.221 36.7776 75.2363C36.3509 75.3647 35.9186 75.4824 35.4822 75.5849C35.4692 75.5849 35.4589 75.5975 35.4438 75.6022V75.6015C30.4283 76.7735 25.1459 76.1835 20.5352 73.9339V73.9332C18.1187 72.7552 15.9486 71.1542 14.1324 69.2105C10.3499 65.0545 8.36426 59.6427 8.58725 54.1005C8.81092 48.5582 11.226 43.314 15.3318 39.458L25.8732 29.221C26.1902 28.9104 26.6211 28.7361 27.0705 28.7348C27.4499 28.7295 27.8163 28.8652 28.0955 29.1139C29.0376 29.97 29.5803 31.1607 29.6022 32.4125C29.6228 33.665 29.1206 34.8723 28.2087 35.7583L18.2951 45.3801C18.0117 45.6448 17.8512 46.0093 17.8477 46.3898C17.845 46.7716 17.9994 47.1381 18.2772 47.4082C18.5544 47.6776 18.9318 47.8279 19.3242 47.8246C19.7174 47.8212 20.0927 47.6649 20.3651 47.3902L30.2684 37.7751L45.6696 22.8181C46.2659 22.2347 47.0782 21.9075 47.9242 21.9094C48.775 21.9101 49.5901 22.2387 50.1911 22.8221C50.7915 23.4054 51.1291 24.1976 51.1297 25.0231C51.1297 25.8493 50.7915 26.6408 50.1911 27.2242L33.699 43.2429C33.4163 43.5076 33.2558 43.8721 33.2517 44.2533C33.2489 44.6344 33.4033 45.0016 33.6812 45.271C33.9549 45.5377 34.3268 45.6874 34.7145 45.6874C34.7193 45.6874 34.7241 45.6874 34.7282 45.6874Z" stroke="#393939" stroke-width="1.90476"/>
<path fill-rule="evenodd" clip-rule="evenodd" d="M28.4961 46.1046C28.8821 46.1012 29.2492 45.9422 29.5168 45.6626L45.6817 29.3629L52.1614 22.8314C52.772 22.2161 53.6058 21.8818 54.4679 21.9055C55.3299 21.9298 56.1449 22.3095 56.7206 22.9573C57.1173 23.4081 57.3681 23.9712 57.4374 24.5702C57.4374 24.6088 57.4374 24.6507 57.4448 24.6914C57.4602 24.8436 57.4636 24.998 57.4562 25.1509C57.4562 25.2044 57.4461 25.2579 57.4421 25.3113V25.3107C57.4286 25.4569 57.4058 25.6017 57.3748 25.7445C57.3634 25.7973 57.3506 25.8488 57.3358 25.9009C57.2935 26.0538 57.2424 26.2048 57.1812 26.3517C57.1671 26.3875 57.1523 26.4241 57.1368 26.4586V26.4579C56.9599 26.8444 56.7165 27.195 56.4193 27.4962L53.0887 30.854L52.3053 31.6425L52.2972 31.6527V31.6601L33.957 50.1406C33.6806 50.41 33.5226 50.7809 33.5186 51.1687C33.5159 51.5579 33.6672 51.9302 33.9395 52.2043C34.2118 52.4791 34.5817 52.6314 34.9663 52.6287C35.3516 52.6246 35.7188 52.4663 35.9864 52.1867L54.3179 33.7042C54.3764 33.6439 54.4437 33.6027 54.5055 33.5492L54.5062 33.5499C55.0751 33.068 55.7899 32.7972 56.5336 32.7844H56.619C56.8329 32.7898 57.0453 32.8162 57.2538 32.8649C57.8805 33.0145 58.4467 33.3543 58.8737 33.8402C59.1978 34.2098 59.4224 34.6592 59.5246 35.1425C59.7748 36.3114 59.4164 37.5277 58.5745 38.3703L58.288 38.6593L52.466 44.514C52.4532 44.5276 52.4499 44.5431 52.4378 44.556L40.4252 56.6674L40.4259 56.6681C40.1495 56.9375 39.9908 57.3084 39.9881 57.6955C39.9841 58.0834 40.1354 58.457 40.4077 58.7318C40.6801 59.0059 41.0506 59.1589 41.4352 59.1555C41.8199 59.1521 42.1877 58.9924 42.4547 58.7135L54.5082 46.5689C54.95 46.1215 55.5162 45.8197 56.1315 45.7005L56.3162 45.6674L56.1725 45.6897C56.383 45.6518 56.5968 45.6362 56.81 45.6437C56.81 45.6437 57.1946 45.6748 57.3843 45.7175C57.4576 45.7351 57.5873 45.7757 57.6546 45.7973L57.5689 45.7703C58.1109 45.9375 58.6827 46.2765 59.0633 46.6989C59.1978 46.8505 59.3169 47.0156 59.4171 47.1923C59.7533 47.8482 59.8703 48.594 59.7526 49.3216C59.6336 50.0492 59.2866 50.7193 58.7614 51.2324L39.346 70.7999C38.9512 71.1979 38.5437 71.5755 38.1261 71.937C38.0488 72.0026 37.9701 72.0629 37.8928 72.1285C37.5593 72.4074 37.2224 72.6768 36.8767 72.9346C36.7409 73.0341 36.6024 73.1296 36.4659 73.2236C36.17 73.4321 35.8708 73.6325 35.5675 73.8254C35.4007 73.9316 35.2346 74.0318 35.0652 74.134C34.778 74.2998 34.4997 74.4589 34.2112 74.6146C34.0215 74.7154 33.8312 74.8169 33.6376 74.9117C33.3706 75.045 33.0996 75.1675 32.8266 75.288C32.6101 75.3848 32.3962 75.485 32.1723 75.5777C31.9491 75.6698 31.7077 75.751 31.4743 75.8363C31.2054 75.9344 30.9377 76.0366 30.6661 76.1259C30.6129 76.1429 30.5585 76.1564 30.5047 76.172C30.0864 76.3026 29.6628 76.4224 29.2351 76.5266C29.2223 76.5266 29.2122 76.5395 29.1974 76.5442V76.5436C24.2819 77.7361 19.1047 77.1358 14.5859 74.8467V74.846C12.2176 73.6473 10.0906 72.0182 8.31067 70.0405C4.60348 65.8116 2.65743 60.3048 2.87598 54.6653C3.09519 49.0259 5.46219 43.6896 9.4861 39.766L19.8175 29.3494C20.1282 29.0333 20.5505 28.856 20.9909 28.8546C21.3628 28.8492 21.7219 28.9873 21.9956 29.2404C22.9188 30.1115 23.4507 31.3231 23.4722 32.5969C23.4924 33.8714 23.0002 35.0998 22.1065 36.0014L12.3904 45.7919C12.1127 46.0613 11.9553 46.4322 11.9519 46.8194C11.9493 47.2079 12.1006 47.5808 12.3729 47.8556C12.6446 48.1297 13.0144 48.2827 13.399 48.2793C13.7844 48.2759 14.1522 48.1169 14.4191 47.8373L24.1252 38.0536L39.2195 22.8341C39.8039 22.2405 40.6001 21.9075 41.4292 21.9095C42.263 21.9102 43.0619 22.2446 43.6509 22.8382C44.2393 23.4318 44.5702 24.2379 44.5708 25.0778C44.5708 25.9185 44.2393 26.7239 43.6509 27.3175L27.4874 43.6172C27.2104 43.8866 27.053 44.2575 27.049 44.6453C27.0463 45.0332 27.1976 45.4068 27.4699 45.6809C27.7382 45.9523 28.1027 46.1046 28.4826 46.1046C28.4873 46.1046 28.492 46.1046 28.4961 46.1046Z" fill="#F4F4F4" stroke="#474747" stroke-width="1.90476"/>
<path d="M62.1268 2.59245L59.6599 8.95199L62.8396 10.1855L65.3065 3.82591L62.1268 2.59245Z" fill="#46C66D"/>
<path d="M67.1137 15.5016L72.4299 11.2276L70.2929 8.56948L64.9767 12.8435L67.1137 15.5016Z" fill="#46C66D"/>
<path d="M75.9917 17.1164L69.2507 18.1597L69.7724 21.5302L76.5134 20.4869L75.9917 17.1164Z" fill="#46C66D"/>
<path d="M27.515 19.0388L34.1038 20.8042L34.9866 17.5098L28.3977 15.7444L27.515 19.0388Z" fill="#46C66D"/>
<path d="M39.8099 12.6864L34.9865 7.86307L32.5749 10.2747L37.3982 15.0981L39.8099 12.6864Z" fill="#46C66D"/>
<path d="M40.4561 3.68598L42.2216 10.2748L45.516 9.39207L43.7505 2.80325L40.4561 3.68598Z" fill="#46C66D"/>
</svg>
