<svg width="124" height="124" viewBox="0 0 124 124" fill="none" xmlns="http://www.w3.org/2000/svg">
<path fill-rule="evenodd" clip-rule="evenodd" d="M52.4401 71.441C53.0748 71.4354 53.6786 71.1755 54.1187 70.7188L80.7014 44.0852L91.357 33.4128C92.3611 32.4075 93.7323 31.8612 95.15 31.8999C96.5676 31.9397 97.9079 32.5601 98.8544 33.6185C99.5069 34.3551 99.9193 35.2752 100.033 36.254C100.033 36.317 100.033 36.3856 100.045 36.452C100.071 36.7008 100.076 36.953 100.064 37.2029C100.064 37.2903 100.048 37.3777 100.041 37.465V37.4639C100.019 37.7028 99.9813 37.9395 99.9304 38.1728C99.9116 38.2591 99.8906 38.3431 99.8663 38.4283C99.7966 38.6783 99.7125 38.9249 99.6119 39.1649C99.5887 39.2235 99.5644 39.2832 99.5389 39.3396V39.3385C99.2481 39.97 98.8478 40.5429 98.359 41.035L92.8819 46.5217L91.5937 47.8101L91.5804 47.8267V47.8388L61.4204 78.0357C60.9659 78.4759 60.706 79.082 60.6994 79.7157C60.695 80.3516 60.9438 80.9599 61.3917 81.4078C61.8395 81.8568 62.4477 82.1057 63.0802 82.1012C63.7139 82.0946 64.3176 81.8358 64.7578 81.379L94.9034 51.1788C94.9996 51.0804 95.1101 51.0129 95.2119 50.9256L95.213 50.9267C96.1485 50.1392 97.324 49.6968 98.547 49.6758H98.6875C99.0391 49.6847 99.3885 49.7278 99.7313 49.8074C100.762 50.0519 101.693 50.607 102.395 51.4011C102.928 52.005 103.298 52.7393 103.466 53.529C103.877 55.4389 103.288 57.4263 101.903 58.8033L101.432 59.2755L91.858 68.842C91.8369 68.8641 91.8314 68.8895 91.8115 68.9105L72.0572 88.7004L72.0583 88.7015C71.6039 89.1417 71.3429 89.7478 71.3385 90.3804C71.3318 91.0141 71.5806 91.6246 72.0285 92.0736C72.4763 92.5215 73.0856 92.7714 73.7182 92.7659C74.3507 92.7604 74.9556 92.4994 75.3946 92.0437L95.2163 72.1996C95.9428 71.4686 96.8739 70.9754 97.8857 70.7807L98.1895 70.7265L97.9532 70.763C98.2993 70.7011 98.651 70.6756 99.0015 70.6878C99.0015 70.6878 99.634 70.7387 99.9459 70.8084C100.066 70.8371 100.28 70.9035 100.39 70.9389L100.249 70.8947C101.141 71.1678 102.081 71.7219 102.707 72.412C102.928 72.6597 103.124 72.9296 103.289 73.2182C103.842 74.2899 104.034 75.5086 103.841 76.6975C103.645 77.8864 103.074 78.9813 102.211 79.8197L70.2824 111.793C69.6333 112.443 68.9632 113.06 68.2765 113.651C68.1493 113.758 68.0199 113.856 67.8927 113.964C67.3442 114.419 66.7902 114.86 66.2218 115.281C65.9985 115.443 65.7707 115.599 65.5462 115.753C65.0596 116.094 64.5675 116.421 64.0688 116.736C63.7946 116.91 63.5215 117.074 63.2428 117.241C62.7706 117.512 62.3128 117.771 61.8384 118.026C61.5266 118.191 61.2136 118.357 60.8951 118.511C60.4561 118.729 60.0105 118.929 59.5615 119.126C59.2055 119.284 58.8538 119.448 58.4856 119.6C58.1184 119.75 57.7215 119.883 57.3377 120.022C56.8954 120.182 56.4553 120.349 56.0085 120.495C55.9212 120.523 55.8316 120.545 55.7432 120.571C55.0553 120.784 54.3587 120.98 53.6554 121.15C53.6344 121.15 53.6178 121.171 53.5934 121.179V121.178C45.5099 123.126 36.9963 122.146 29.5652 118.405V118.404C25.6705 116.445 22.1728 113.783 19.2457 110.552C13.1494 103.642 9.94916 94.6438 10.3085 85.429C10.669 76.2142 14.5615 67.4949 21.1787 61.0837L38.1684 44.0631C38.6793 43.5466 39.3738 43.2569 40.0981 43.2547C40.7096 43.2458 41.3001 43.4714 41.7502 43.8851C43.2685 45.3084 44.1432 47.2881 44.1785 49.3695C44.2117 51.452 43.4023 53.4593 41.9326 54.9324L25.9547 70.93C25.498 71.3702 25.2393 71.9762 25.2337 72.6088C25.2293 73.2437 25.4781 73.853 25.926 74.3021C26.3727 74.75 26.9809 74.9999 27.6134 74.9944C28.2471 74.9888 28.852 74.729 29.291 74.2722L45.2523 58.2857L70.0745 33.4172C71.0355 32.4473 72.3447 31.9032 73.7082 31.9065C75.0794 31.9076 76.3931 32.454 77.3618 33.4239C78.3294 34.3938 78.8735 35.711 78.8746 37.0835C78.8746 38.4571 78.3294 39.7731 77.3618 40.7431L50.7814 67.3766C50.3258 67.8168 50.067 68.4228 50.0604 69.0565C50.0559 69.6902 50.3048 70.3007 50.7526 70.7486C51.1938 71.1921 51.7932 71.441 52.418 71.441C52.4257 71.441 52.4334 71.441 52.4401 71.441Z" stroke="#393939" stroke-width="2"/>
<path fill-rule="evenodd" clip-rule="evenodd" d="M43.1588 72.2846C43.7936 72.2791 44.3973 72.0192 44.8375 71.5624L71.4201 44.9289L82.0758 34.2564C83.0798 33.2511 84.451 32.7048 85.8687 32.7435C87.2864 32.7833 88.6266 33.4038 89.5732 34.4622C90.2256 35.1987 90.6381 36.1189 90.752 37.0976C90.752 37.1607 90.752 37.2292 90.7642 37.2956C90.7896 37.5444 90.7951 37.7966 90.7829 38.0465C90.7829 38.1339 90.7663 38.2213 90.7597 38.3087V38.3075C90.7376 38.5464 90.7 38.7831 90.6491 39.0165C90.6303 39.1027 90.6093 39.1868 90.585 39.2719C90.5153 39.5219 90.4313 39.7685 90.3307 40.0085C90.3074 40.0671 90.2831 40.1268 90.2577 40.1832V40.1821C89.9669 40.8136 89.5666 41.3865 89.0778 41.8787L83.6007 47.3653L82.3124 48.6537L82.2991 48.6703V48.6825L52.1392 78.8794C51.6847 79.3195 51.4248 79.9256 51.4182 80.5593C51.4137 81.1952 51.6625 81.8035 52.1104 82.2514C52.5583 82.7004 53.1665 82.9493 53.799 82.9449C54.4326 82.9382 55.0364 82.6794 55.4765 82.2227L85.6221 52.0224C85.7183 51.924 85.8289 51.8566 85.9306 51.7692L85.9317 51.7703C86.8673 50.9829 88.0427 50.5405 89.2658 50.5195H89.4062C89.7579 50.5283 90.1073 50.5714 90.4501 50.6511C91.4807 50.8955 92.4118 51.4507 93.114 52.2447C93.647 52.8486 94.0163 53.5829 94.1844 54.3726C94.5958 56.2826 94.0064 58.27 92.6219 59.6469L92.1508 60.1191L82.5767 69.6856C82.5557 69.7077 82.5502 69.7332 82.5303 69.7542L62.776 89.5441L62.7771 89.5452C62.3226 89.9853 62.0616 90.5914 62.0572 91.224C62.0506 91.8577 62.2994 92.4682 62.7472 92.9172C63.1951 93.3651 63.8044 93.6151 64.4369 93.6095C65.0694 93.604 65.6743 93.343 66.1133 92.8874L85.9351 73.0433C86.6616 72.3122 87.5927 71.819 88.6045 71.6243L88.9083 71.5701L88.6719 71.6066C89.0181 71.5447 89.3697 71.5193 89.7203 71.5314C89.7203 71.5314 90.3528 71.5823 90.6646 71.652C90.7852 71.6807 90.9986 71.7471 91.1092 71.7825L90.9682 71.7383C91.8595 72.0115 92.7999 72.5655 93.4258 73.2556C93.647 73.5033 93.8427 73.7732 94.0075 74.0619C94.5604 75.1335 94.7528 76.3523 94.5593 77.5412C94.3636 78.7301 93.793 79.825 92.9293 80.6633L61.0012 112.636C60.352 113.287 59.6819 113.904 58.9952 114.494C58.868 114.602 58.7387 114.7 58.6115 114.807C58.063 115.263 57.509 115.703 56.9406 116.124C56.7172 116.287 56.4894 116.443 56.2649 116.597C55.7784 116.937 55.2863 117.265 54.7876 117.58C54.5133 117.754 54.2402 117.917 53.9615 118.084C53.4894 118.355 53.0315 118.615 52.5572 118.869C52.2453 119.034 51.9324 119.2 51.6139 119.355C51.1749 119.573 50.7292 119.773 50.2803 119.97C49.9242 120.128 49.5726 120.292 49.2043 120.443C48.8372 120.594 48.4402 120.726 48.0565 120.866C47.6142 121.026 47.174 121.193 46.7273 121.339C46.6399 121.367 46.5504 121.389 46.4619 121.414C45.7741 121.628 45.0774 121.823 44.3741 121.994C44.3531 121.994 44.3365 122.015 44.3122 122.023V122.021C36.2287 123.97 27.715 122.989 20.284 119.249V119.248C16.3893 117.289 12.8916 114.627 9.96449 111.395C3.86814 104.485 0.66791 95.4874 1.0273 86.2727C1.3878 77.0579 5.28026 68.3386 11.8975 61.9274L28.8872 44.9068C29.3981 44.3903 30.0925 44.1005 30.8168 44.0983C31.4284 44.0895 32.0189 44.3151 32.4689 44.7287C33.9872 46.1521 34.8619 48.1317 34.8973 50.2131C34.9305 52.2956 34.121 54.3029 32.6514 55.7761L16.6735 71.7736C16.2168 72.2138 15.958 72.8199 15.9525 73.4525C15.9481 74.0873 16.1969 74.6967 16.6447 75.1457C17.0915 75.5936 17.6997 75.8435 18.3322 75.838C18.9658 75.8325 19.5707 75.5726 20.0097 75.1158L35.971 59.1293L60.7933 34.2609C61.7542 33.2909 63.0635 32.7468 64.427 32.7501C65.7982 32.7512 67.1119 33.2976 68.0806 34.2675C69.0482 35.2374 69.5922 36.5546 69.5933 37.9271C69.5933 39.3007 69.0482 40.6168 68.0806 41.5867L41.5001 68.2202C41.0445 68.6604 40.7858 69.2664 40.7791 69.9002C40.7747 70.5339 41.0235 71.1444 41.4714 71.5923C41.9126 72.0358 42.5119 72.2846 43.1367 72.2846C43.1445 72.2846 43.1522 72.2846 43.1588 72.2846Z" fill="#F4F4F4" stroke="#474747" stroke-width="2"/>
<path d="M97.4744 1.67153L93.4595 12.0217L98.6346 14.0292L102.65 3.679L97.4744 1.67153Z" fill="#46C66D"/>
<path d="M105.591 22.6813L114.243 15.7252L110.765 11.3992L102.113 18.3552L105.591 22.6813Z" fill="#46C66D"/>
<path d="M120.04 25.3093L109.069 27.0073L109.918 32.4928L120.889 30.7948L120.04 25.3093Z" fill="#46C66D"/>
<path d="M41.1299 28.4377L51.8533 31.311L53.2899 25.9493L42.5666 23.076L41.1299 28.4377Z" fill="#46C66D"/>
<path d="M61.1399 18.0992L53.2899 10.2491L49.3649 14.1742L57.2149 22.0242L61.1399 18.0992Z" fill="#46C66D"/>
<path d="M62.1917 3.45092L65.065 14.1743L70.4266 12.7376L67.5533 2.01427L62.1917 3.45092Z" fill="#46C66D"/>
</svg>
