<svg width="124" height="124" viewBox="0 0 124 124" fill="none" xmlns="http://www.w3.org/2000/svg">
<g clip-path="url(#clip0_6093_18666)">
<rect width="124" height="124" fill="white" fill-opacity="0.01" style="mix-blend-mode:multiply"/>
<path d="M57.3751 121.705C27.0032 121.705 2.29688 96.9987 2.29688 66.6268C2.29688 36.2549 27.0032 11.5486 57.3751 11.5486C87.747 11.5486 112.453 36.2549 112.453 66.6268C112.453 96.9987 87.747 121.705 57.3751 121.705ZM56.0842 109.657H58.666V119.109C86.5923 118.435 109.179 95.8441 109.857 67.9177H100.405V65.336H109.857C109.179 37.4132 86.5888 14.8225 58.666 14.1448V23.597H56.0842V14.1448C28.1614 14.8225 5.57073 37.4132 4.89301 65.336H14.3452V67.9177H4.89301C5.57073 95.8441 28.1578 118.431 56.0842 119.109V109.657Z" fill="#474747"/>
<rect x="55.9375" y="109.657" width="2.86866" height="9.32313" fill="#42BE65"/>
<rect x="5.02344" y="68.0612" width="2.86866" height="9.32313" transform="rotate(-90 5.02344 68.0612)" fill="#42BE65"/>
<rect x="55.9453" y="2.79962" width="2.86866" height="9.32313" fill="#474747"/>
<rect x="48.7656" y="2.79962" width="2.86866" height="17.2119" transform="rotate(-90 48.7656 2.79962)" fill="#474747"/>
<path d="M27.2578 44.4548L57.2362 74.516L124.075 7.50188L119.376 2.79962L57.2362 65.1115L31.9471 39.7526L27.2578 44.4548Z" fill="#46C66D"/>
</g>
<defs>
<clipPath id="clip0_6093_18666">
<rect width="124" height="124" fill="white"/>
</clipPath>
</defs>
</svg>
