<svg width="24" height="24" viewBox="0 0 24 24" fill="none" xmlns="http://www.w3.org/2000/svg">
<path d="M4 21.0003H20M5.666 13.1873C5.23962 13.6147 5.00011 14.1937 5 14.7973V18.0003H8.223C8.827 18.0003 9.406 17.7603 9.833 17.3323L19.333 7.82734C19.7592 7.39993 19.9986 6.82095 19.9986 6.21734C19.9986 5.61372 19.7592 5.03474 19.333 4.60734L18.395 3.66734C18.1835 3.45569 17.9323 3.28781 17.6558 3.1733C17.3794 3.0588 17.083 2.99991 16.7838 3C16.4846 3.00009 16.1883 3.05917 15.9119 3.17385C15.6355 3.28852 15.3844 3.45656 15.173 3.66834L5.666 13.1873Z" stroke="#277AFF" stroke-width="1.5" stroke-linecap="round" stroke-linejoin="round"/>
</svg>
