<svg width="124" height="124" viewBox="0 0 124 124" fill="none" xmlns="http://www.w3.org/2000/svg">
<rect width="124" height="124" fill="white" fill-opacity="0.01" style="mix-blend-mode:multiply"/>
<path d="M28.627 94.0684C31.9194 94.0684 35.04 94.4057 37.8047 95.002C40.5461 95.595 42.9495 96.4491 44.8447 97.4844L45.2168 97.6943C45.9318 98.1076 46.1782 99.0206 45.7686 99.7451C45.382 100.42 44.5605 100.677 43.8682 100.368L43.7314 100.299C42.0388 99.3205 39.7916 98.5149 37.1885 97.9551C34.6276 97.4048 31.7184 97.0918 28.627 97.0918C25.5362 97.0918 22.6266 97.3993 20.0645 97.9551C17.4606 98.5151 15.2186 99.3206 13.5215 100.299L13.5205 100.3C12.8059 100.713 11.8988 100.467 11.4854 99.7451C11.0979 99.0683 11.2905 98.2222 11.9072 97.7773L12.0371 97.6943C13.9857 96.5647 16.5251 95.6344 19.4492 95.002L19.4482 95.001C22.2184 94.4045 25.3344 94.0684 28.627 94.0684ZM95.3672 94.0684C98.6598 94.0684 101.781 94.4056 104.546 95.002C107.47 95.6345 110.008 96.5648 111.957 97.6943H111.958C112.673 98.1077 112.918 99.0207 112.509 99.7451C112.122 100.42 111.301 100.677 110.608 100.368L110.472 100.299C108.779 99.3205 106.532 98.5149 103.929 97.9551C101.368 97.4048 98.4586 97.0918 95.3672 97.0918C92.2765 97.0918 89.3667 97.3993 86.8047 97.9551C84.2011 98.515 81.9534 99.321 80.2607 100.3C79.5461 100.713 78.639 100.467 78.2256 99.7451C77.8381 99.0681 78.0313 98.2221 78.6484 97.7773L78.7773 97.6943C80.726 96.5647 83.2653 95.6344 86.1895 95.002L86.1885 95.001C88.9586 94.4045 92.0746 94.0684 95.3672 94.0684ZM9.17578 42.4482L32.292 42.4531H32.293C33.1195 42.4534 33.7918 43.1256 33.792 43.9619C33.792 44.7983 33.1196 45.4714 32.293 45.4717H9.17578C7.61203 45.4717 6.19643 46.1132 5.16699 47.1475C4.1376 48.1818 3.5 49.6037 3.5 51.1729V80.7793C3.5 82.3484 4.13753 83.7703 5.16699 84.8047C6.19638 85.8389 7.61198 86.4804 9.17578 86.4805L48.0898 86.4756C49.6535 86.4755 51.0692 85.834 52.0986 84.7998C53.128 83.7655 53.7656 82.3436 53.7656 80.7744V75.0156C53.7656 74.178 54.4393 73.5081 55.2578 73.5117H55.2607C56.0874 73.5118 56.7606 74.1841 56.7607 75.0205V80.7803C56.7607 83.1782 55.7832 85.3616 54.2119 86.9404C52.6406 88.5192 50.4684 89.5 48.084 89.5L9.17578 89.4951C6.79143 89.4951 4.61912 88.5143 3.04785 86.9355C1.47647 85.3567 0.5 83.1725 0.5 80.7744V51.168C0.5 48.7699 1.47651 46.5857 3.04785 45.0068C4.61911 43.428 6.79144 42.4483 9.17578 42.4482ZM91.707 42.4473L114.824 42.4531C117.209 42.4532 119.381 43.433 120.952 45.0117C122.524 46.5906 123.5 48.7748 123.5 51.1729V80.7793C123.5 83.1774 122.523 85.3616 120.952 86.9404C119.381 88.5193 117.209 89.5 114.824 89.5H75.9102C73.5258 89.4999 71.3535 88.5192 69.7822 86.9404C68.2109 85.3616 67.2344 83.1773 67.2344 80.7793V75.0205C67.2344 74.1839 67.9076 73.5117 68.7344 73.5117C69.561 73.5119 70.2334 74.184 70.2334 75.0205V80.7793C70.2334 82.3483 70.8711 83.7703 71.9004 84.8047C72.8656 85.7745 74.171 86.3994 75.6191 86.4736L75.9102 86.4805L114.824 86.4756C116.388 86.4755 117.804 85.8341 118.833 84.7998C119.862 83.7655 120.5 82.3436 120.5 80.7744V51.167C120.5 49.5981 119.862 48.1769 118.833 47.1426C117.804 46.1083 116.388 45.4659 114.824 45.4658H91.707C90.8806 45.4657 90.2081 44.7936 90.208 43.957C90.208 43.1206 90.8804 42.4475 91.707 42.4473ZM62 22.5C68.4264 22.5001 74.2428 25.1132 78.4502 29.3457V29.3467C82.6581 33.5752 85.2656 39.4203 85.2656 45.8789C85.2656 52.3331 82.663 58.1791 78.4502 62.4121C74.2418 66.6399 68.4255 69.2578 62 69.2578C55.5787 69.2578 49.7616 66.6451 45.5488 62.4121C41.3409 58.1835 38.7344 52.3376 38.7344 45.8789C38.7344 39.4249 41.3362 33.5796 45.5488 29.3467C49.7573 25.1186 55.5743 22.5 62 22.5ZM62 25.5186C56.4023 25.5186 51.3355 27.7963 47.668 31.4814C44.0006 35.1664 41.7345 40.2558 41.7344 45.8779C41.7344 51.5002 44.0004 56.5903 47.668 60.2754C51.3355 63.9605 56.4023 66.2383 62 66.2383C67.5975 66.2382 72.6636 63.9603 76.3311 60.2754C79.9986 56.5903 82.2646 51.5002 82.2646 45.8779C82.2645 40.2558 79.9985 35.1664 76.3311 31.4814C72.6634 27.7964 67.5975 25.5186 62 25.5186Z" fill="black" stroke="#F4F4F4"/>
<path d="M59.5469 38.5361C59.9292 38.1539 60.5502 38.1539 60.9326 38.5361L64.3184 41.9219C64.455 42.0571 64.455 42.2788 64.3184 42.4141L64.3174 42.4131C64.182 42.5478 63.9638 42.5483 63.8281 42.4141V42.4131L60.4414 39.0273C60.3303 38.9164 60.1491 38.9164 60.0381 39.0273L59.2627 39.8018V39.8027C59.2511 39.814 59.2478 39.8278 59.2578 39.8447C59.6287 40.4615 59.5333 41.2468 59.0254 41.7559C58.6047 42.1764 57.9686 42.3207 57.4043 42.124V42.123C57.1876 42.048 56.9878 42.0614 56.7832 42.1641C56.5782 42.267 56.4478 42.4193 56.3789 42.6377L53.9453 50.3301L57.3799 53.7656L65.0732 51.333C65.2916 51.2641 65.4449 51.1328 65.5469 50.9287L65.5811 50.8525C65.6515 50.6739 65.6529 50.4967 65.5869 50.3066C65.3903 49.7422 65.5344 49.1062 65.9551 48.6855C66.4629 48.178 67.2486 48.0817 67.8652 48.4531H67.8662C67.8815 48.4623 67.8963 48.4615 67.9102 48.4482L68.6846 47.6738L68.7207 47.6309C68.7512 47.5852 68.7675 47.5304 68.7676 47.4717C68.7676 47.3941 68.7374 47.3231 68.6836 47.2686V47.2676L65.2979 43.8828V43.8818C65.1623 43.7467 65.162 43.5266 65.2979 43.3916C65.4164 43.2731 65.5995 43.2591 65.7344 43.3477L65.7891 43.3916L69.1748 46.7783C69.5571 47.1606 69.5574 47.7826 69.1748 48.1641L68.3994 48.9385C68.1617 49.1761 67.7951 49.2203 67.5078 49.0479C67.1647 48.8413 66.7281 48.8939 66.4453 49.1758C66.2127 49.4086 66.132 49.7622 66.2422 50.0762V50.0771C66.3801 50.4719 66.3541 50.864 66.167 51.2373C65.9798 51.6107 65.6814 51.8669 65.2822 51.9932L57.3877 54.4893C57.354 54.5 57.3193 54.5047 57.2842 54.5049V54.5068C57.1953 54.5068 57.1059 54.472 57.04 54.4053L53.3057 50.6729C53.2143 50.5812 53.1823 50.4466 53.2197 50.3242L53.2207 50.3232L55.7168 42.4287L55.7705 42.2842C55.909 41.9577 56.145 41.7078 56.4717 41.5439C56.8453 41.3566 57.2381 41.3318 57.6328 41.4688C57.9473 41.5783 58.3024 41.4974 58.5352 41.2646C58.8176 40.9821 58.8697 40.5463 58.6631 40.2031C58.4903 39.9155 58.5361 39.5491 58.7725 39.3115L59.5469 38.5361Z" fill="#46C66D" stroke="#46C66D" stroke-width="0.2"/>
<path d="M65.0762 34.3662C65.6468 33.7956 66.5443 33.7453 67.1465 34.2324L67.2627 34.3379L73.374 40.4482C73.6628 40.7371 73.818 41.1261 73.8105 41.542C73.8048 41.902 73.6766 42.2446 73.4482 42.5205L73.3447 42.6348L68.9414 47.0381C68.8739 47.1056 68.7842 47.1385 68.6973 47.1387V47.1396H68.6963V47.1387C68.6081 47.1384 68.52 47.1055 68.4521 47.0391L68.4512 47.0381C68.3162 46.903 68.3161 46.682 68.4512 46.5469L72.8545 42.1436C73.0197 41.9773 73.1136 41.7599 73.1172 41.5293C73.1207 41.302 73.0368 41.0925 72.8828 40.9395L66.7725 34.8281C66.451 34.5067 65.9106 34.5143 65.5674 34.8574L61.1641 39.2607C61.0282 39.3952 60.8082 39.3961 60.6729 39.2607C60.5378 39.1256 60.5378 38.9046 60.6729 38.7695L65.0762 34.3662Z" fill="#46C66D" stroke="#46C66D" stroke-width="0.2"/>
<path d="M67.1602 34.7158C67.2786 34.5977 67.461 34.5836 67.5957 34.6719L67.6504 34.7158C67.7855 34.851 67.7855 35.0719 67.6504 35.207L66.3818 36.4766L66.3809 36.4756C66.0916 36.7659 66.0928 37.2382 66.3818 37.5273L70.1924 41.3379C70.3317 41.4772 70.518 41.5556 70.7178 41.5557C70.9177 41.5557 71.1042 41.4786 71.2432 41.3389L72.5137 40.0684C72.6496 39.9343 72.8687 39.9341 73.0039 40.0693C73.1387 40.2044 73.1387 40.4245 73.0039 40.5596L71.7354 41.8291C71.4642 42.1002 71.1023 42.249 70.7188 42.249H70.7178C70.333 42.249 69.9721 42.099 69.7012 41.8291L65.8906 38.0186C65.3301 37.458 65.3301 36.5459 65.8906 35.9854L67.1602 34.7158Z" fill="#46C66D" stroke="#46C66D" stroke-width="0.2"/>
<path d="M68.4951 36.0537C68.631 35.9193 68.851 35.9184 68.9863 36.0537H68.9854C69.1218 36.1888 69.1214 36.4087 68.9854 36.5439L66.9463 38.585C66.8784 38.6528 66.7882 38.6865 66.7002 38.6865C66.6118 38.6865 66.5227 38.6525 66.4551 38.585V38.584C66.3194 38.4488 66.319 38.2287 66.4551 38.0938L68.4951 36.0537Z" fill="#46C66D" stroke="#46C66D" stroke-width="0.2"/>
<path d="M69.8301 37.3916C69.9652 37.2566 70.1852 37.2566 70.3203 37.3916H70.3193C70.4558 37.5267 70.4555 37.7466 70.3193 37.8818L68.2803 39.9229C68.2126 39.9905 68.1229 40.0232 68.0352 40.0234V40.0244H68.0342V40.0234C67.9461 40.0232 67.8573 39.9902 67.79 39.9229C67.655 39.7877 67.655 39.5668 67.79 39.4316L69.8301 37.3916Z" fill="#46C66D" stroke="#46C66D" stroke-width="0.2"/>
<path d="M71.167 38.7295C71.3023 38.5943 71.5214 38.5953 71.6572 38.7295H71.6582C71.7933 38.8646 71.7933 39.0856 71.6582 39.2207L69.6182 41.2607C69.5506 41.3283 69.4615 41.3623 69.373 41.3623H69.3721C69.2836 41.3623 69.195 41.3283 69.127 41.2617L69.126 41.2607C68.9909 41.1256 68.9909 40.9047 69.126 40.7695L71.167 38.7295Z" fill="#46C66D" stroke="#46C66D" stroke-width="0.2"/>
<path d="M65.1846 40.5713C65.3204 40.4368 65.5404 40.436 65.6758 40.5713L67.1455 42.041C67.2807 42.1762 67.2806 42.3971 67.1455 42.5322L64.1641 45.5127C63.8944 45.7824 63.5393 45.9179 63.1846 45.918C62.83 45.918 62.4749 45.7834 62.2041 45.5127C61.6636 44.9722 61.6636 44.0933 62.2041 43.5527L65.1846 40.5713ZM62.6943 44.043C62.4251 44.3132 62.4256 44.7523 62.6943 45.0215C62.9636 45.2907 63.4038 45.2921 63.6729 45.0225V45.0215L66.4082 42.2852L65.4297 41.3066L62.6943 44.043Z" fill="#46C66D" stroke="#46C66D" stroke-width="0.2"/>
<path d="M55.8857 48.5996C56.1724 48.5996 56.4426 48.7111 56.6445 48.9131L58.8027 51.0693C59.0047 51.2713 59.1162 51.5415 59.1162 51.8281C59.1162 52.1148 59.0047 52.3849 58.8027 52.5869H58.8018C58.5922 52.7952 58.3186 52.9004 58.0439 52.9004H58.043C57.7684 52.9004 57.4929 52.7956 57.2842 52.5869L55.1279 50.4297C54.9259 50.2277 54.8145 49.9576 54.8145 49.6709C54.8145 49.3843 54.926 49.115 55.1279 48.9131C55.3299 48.7112 55.5992 48.5997 55.8857 48.5996ZM55.8848 49.293C55.7828 49.293 55.6881 49.3314 55.6172 49.4023C55.5462 49.4733 55.5079 49.568 55.5078 49.6699C55.5078 49.7719 55.5463 49.8665 55.6172 49.9375L57.7744 52.0947L57.834 52.1426C57.9813 52.2393 58.1809 52.2234 58.3096 52.0947L58.3564 52.0371C58.3973 51.9756 58.4199 51.9032 58.4199 51.8271C58.4199 51.7511 58.3973 51.6787 58.3564 51.6172L58.3096 51.5596L56.1514 49.4014C56.0842 49.3334 55.9929 49.2956 55.8945 49.293H55.8848Z" fill="#46C66D" stroke="#46C66D" stroke-width="0.2"/>
<path d="M57.1279 43.3057C57.5464 42.8874 58.2262 42.8873 58.6445 43.3057L64.417 49.0781C64.6187 49.28 64.7304 49.5495 64.7305 49.8359C64.7305 50.1225 64.6189 50.3928 64.417 50.5947C64.2083 50.8035 63.9328 50.9082 63.6582 50.9082H63.6572C63.3826 50.9082 63.1072 50.8035 62.8984 50.5947L57.1279 44.8223C56.9259 44.6203 56.8145 44.3502 56.8145 44.0635C56.8146 43.777 56.926 43.5075 57.1279 43.3057ZM57.8848 43.6855C57.7882 43.6856 57.6907 43.7224 57.6172 43.7959C57.5462 43.8668 57.5079 43.9615 57.5078 44.0635C57.5078 44.1654 57.5463 44.2601 57.6172 44.3311L63.3896 50.1035L63.4492 50.1523C63.5965 50.2488 63.7963 50.232 63.9248 50.1035C64.0719 49.9564 64.0719 49.7154 63.9248 49.5684L58.1523 43.7959C58.0787 43.7224 57.9822 43.6855 57.8848 43.6855Z" fill="#46C66D" stroke="#46C66D" stroke-width="0.2"/>
<path d="M56.1514 46.1357C56.5698 45.7173 57.2496 45.7173 57.668 46.1357L61.582 50.0488C61.784 50.2508 61.8955 50.521 61.8955 50.8076C61.8955 51.0943 61.784 51.3644 61.582 51.5664C61.3733 51.7751 61.0978 51.8799 60.8232 51.8799C60.5487 51.8799 60.2732 51.7751 60.0645 51.5664L56.1514 47.6523C55.733 47.2339 55.733 46.5542 56.1514 46.1357ZM56.9092 46.5156C56.8118 46.5157 56.7151 46.5524 56.6416 46.626C56.4938 46.773 56.4939 47.0141 56.6416 47.1611L60.5566 51.0752C60.7037 51.2222 60.9447 51.2221 61.0918 51.0752C61.1627 51.0042 61.2021 50.9096 61.2021 50.8076C61.2021 50.7056 61.1627 50.611 61.0918 50.54L57.1787 46.626C57.1052 46.5524 57.0085 46.5157 56.9111 46.5156H56.9092Z" fill="#46C66D" stroke="#46C66D" stroke-width="0.2"/>
<path d="M54.0459 50.9131C54.1817 50.7788 54.4008 50.778 54.5361 50.9131L54.5811 50.9678C54.6577 51.0832 54.6579 51.2352 54.5811 51.3506L54.5361 51.4043L53.8525 52.0879C53.6113 52.3291 53.6113 52.7226 53.8525 52.9639L54.7549 53.8662C54.871 53.9823 55.0273 54.0459 55.1934 54.0459C55.3603 54.0458 55.5148 53.9823 55.6309 53.8662L56.3145 53.1826C56.4498 53.0473 56.6688 53.0482 56.8047 53.1826H56.8057C56.9406 53.3178 56.9407 53.5388 56.8057 53.6738L56.1221 54.3574C55.8751 54.6044 55.544 54.7402 55.1934 54.7402C54.8428 54.7402 54.5117 54.6043 54.2646 54.3574L53.3613 53.4541C53.1144 53.2071 52.9785 52.876 52.9785 52.5254C52.9786 52.174 53.1132 51.8439 53.3613 51.5967L54.0449 50.9131H54.0459Z" fill="#46C66D" stroke="#46C66D" stroke-width="0.2"/>
<path d="M53.2725 52.8643C53.4082 52.7299 53.6273 52.7292 53.7627 52.8643C53.8978 52.9994 53.8978 53.2203 53.7627 53.3555L51.8311 55.2861L52.4277 55.8828L54.1631 54.1484C54.1526 54.0484 54.1831 53.9439 54.2607 53.8662C54.3959 53.7311 54.6158 53.7312 54.751 53.8662C54.7708 53.8861 54.7918 53.9044 54.8145 53.9219H54.8135C54.893 53.9819 54.9442 54.0741 54.9502 54.1748L54.9473 54.249C54.9366 54.322 54.9025 54.3904 54.8496 54.4434L52.6729 56.6201C52.6058 56.6871 52.5159 56.723 52.4258 56.7217L52.1904 56.7178L52.2412 56.666C52.2207 56.6528 52.2015 56.6371 52.1836 56.6191L51.0947 55.5322C51.0299 55.4672 50.9941 55.3783 50.9941 55.2861C50.9943 55.1949 51.0302 55.1067 51.0947 55.042L53.2725 52.8643Z" fill="#46C66D" stroke="#46C66D" stroke-width="0.2"/>
</svg>
