<svg width="100" height="100" viewBox="0 0 100 100" fill="none" xmlns="http://www.w3.org/2000/svg">
<path d="M96.875 93.7048C96.875 95.5457 95.3826 97.0381 93.5417 97.0381H6.45834C4.61739 97.0381 3.125 95.5457 3.125 93.7048V50.9363C3.125 50.0487 3.47901 49.1978 4.10856 48.5721L47.6502 5.29705C48.9503 4.00494 51.0497 4.00494 52.3498 5.29705L95.8914 48.5721C96.521 49.1978 96.875 50.0487 96.875 50.9363V93.7048Z" fill="#A7E6D0" stroke="#023B29" stroke-width="1.25" stroke-miterlimit="10"/>
<path d="M63.3459 75.193C66.7596 71.7626 68.87 67.0324 68.87 61.801C68.87 51.3413 60.4222 42.8657 50.0004 42.8657C39.5786 42.8657 31.1309 51.3429 31.1309 61.801C31.1309 67.1358 33.3252 71.9488 36.8594 75.3887" stroke="#023B29" stroke-width="1.25" stroke-miterlimit="10"/>
<path d="M30.9311 81.3375C25.8795 76.3702 22.748 69.4538 22.748 61.8008C22.748 46.7 34.9472 34.4536 50.0004 34.4536C65.0535 34.4536 77.2527 46.7 77.2527 61.8008C77.2527 69.3504 74.2005 76.1888 69.2695 81.137" stroke="#023B29" stroke-width="1.25" stroke-miterlimit="10"/>
<path d="M50 67.6814V85.495" stroke="#023B29" stroke-width="1.25" stroke-miterlimit="10"/>
<path d="M55.8597 61.8004C55.8597 63.4248 55.2065 64.8966 54.1442 65.9578C53.0866 67.0238 51.62 67.6794 50.0012 67.6794C48.4838 67.6794 47.1012 67.1018 46.0627 66.1519C44.8798 65.0764 44.1426 63.5267 44.1426 61.8004C44.1426 58.5514 46.7635 55.9214 50.0012 55.9214C53.2388 55.9214 55.8597 58.5514 55.8597 61.8004Z" fill="#06B27B" stroke="#023B29" stroke-width="1.25" stroke-miterlimit="10"/>
</svg>
