<svg width="124" height="124" viewBox="0 0 124 124" fill="none" xmlns="http://www.w3.org/2000/svg">
<rect width="124" height="124" fill="white" fill-opacity="0.01" style="mix-blend-mode:multiply"/>
<path fill-rule="evenodd" clip-rule="evenodd" d="M98.3487 87.281C98.945 87.3782 99.5057 87.6634 99.9367 88.0977C100.481 88.6389 100.789 89.3778 100.789 90.1491L100.789 90.2334C100.789 90.8297 100.608 91.4066 100.271 91.8894C100.352 92.0158 100.4 92.1649 100.4 92.3269L100.4 102.888C100.4 103.313 100.232 103.721 99.9302 104.022C99.6288 104.321 99.2237 104.489 98.7991 104.489L98.5172 104.489L98.5172 117.19C98.5172 117.637 98.151 118 97.7037 118L82.52 118C82.0728 118 81.7065 117.637 81.7065 117.19L81.7065 104.489L81.4246 104.489C81 104.489 80.5949 104.32 80.2935 104.022C79.9921 103.721 79.8236 103.313 79.8236 102.888L79.8236 92.3269C79.8236 92.1649 79.8722 92.0158 79.9532 91.8894C79.6162 91.4065 79.4347 90.8297 79.4347 90.2334L79.4347 90.1491C79.4347 89.3778 79.7425 88.6389 80.287 88.0977C80.7213 87.6634 81.2787 87.3782 81.8783 87.281C81.7648 86.9991 81.7065 86.6912 81.7065 86.3769C81.7065 85.0029 82.8214 83.888 84.1987 83.888L84.4677 83.888C84.3673 83.619 84.3122 83.3273 84.3122 83.0195C84.3122 81.8495 85.1192 80.8676 86.2081 80.6018C86.0882 80.3134 86.0234 79.9958 86.0234 79.662C86.0234 78.719 86.5517 77.8926 87.3295 77.4713L87.3295 66.0863C87.3295 64.8419 86.3216 63.834 85.0771 63.834L78.7671 63.834C78.1707 63.834 77.5971 64.0706 77.1758 64.4951C76.7544 64.9164 76.5179 65.4868 76.5179 66.0864L76.5179 87.2909C76.5179 89.3649 75.6947 91.3547 74.2266 92.8196C72.7617 94.2844 70.7718 95.1108 68.6976 95.1108L67.492 95.1108C63.1752 95.1108 59.675 91.6075 59.675 87.2909L59.675 60.9368C59.675 60.4864 60.0379 60.1234 60.4852 60.1234C60.9357 60.1234 61.2987 60.4864 61.2987 60.9368L61.2986 87.2909C61.2986 90.7131 64.0729 93.4839 67.4919 93.4839L68.6975 93.4839C70.3407 93.4839 71.9157 92.8325 73.0759 91.6723C74.2394 90.5089 74.8908 88.9339 74.8908 87.2909L74.8908 66.0864C74.8908 65.0558 75.2992 64.0706 76.0251 63.3447C76.7543 62.6188 77.7396 62.2104 78.7669 62.2104L85.077 62.2104C87.2192 62.2104 88.9531 63.9442 88.9531 66.0864L88.9531 77.1727L91.2703 77.1727L91.2703 66.0864C91.2703 62.6641 88.4994 59.89 85.0771 59.89L78.767 59.89C77.1239 59.89 75.5488 60.5446 74.3886 61.7048C73.2252 62.8682 72.5737 64.4433 72.5737 66.0863L72.5737 87.2908C72.5737 88.3181 72.1654 89.3033 71.4394 90.0325C70.7134 90.7584 69.725 91.1667 68.6976 91.1667L67.492 91.1667C65.3531 91.1667 63.6159 89.433 63.6159 87.2908L63.6159 60.9368C63.6159 60.4863 63.9821 60.1233 64.4294 60.1233C64.8799 60.1233 65.2428 60.4863 65.2428 60.9368L65.2428 87.2908C65.2428 88.5352 66.2507 89.5431 67.492 89.5431L68.6976 89.5431C69.2939 89.5431 69.8676 89.3032 70.2889 88.8819C70.7134 88.4607 70.9468 87.8871 70.9468 87.2907L70.9468 66.0862C70.9468 64.0121 71.7732 62.0223 73.2381 60.5575C74.7029 59.0894 76.6929 58.2663 78.767 58.2663L85.0771 58.2663C89.3939 58.2663 92.8941 61.7663 92.8941 66.0862L92.8941 77.4712C93.6719 77.8925 94.2002 78.7189 94.2002 79.6619C94.2002 79.9957 94.1353 80.3133 94.0187 80.6017C95.1044 80.8675 95.9113 81.8494 95.9113 83.0194C95.9113 83.3272 95.8562 83.6189 95.7557 83.8879L96.0247 83.8879C96.6859 83.8879 97.3211 84.1504 97.7878 84.6171C98.2545 85.0837 98.517 85.7189 98.517 86.3768C98.517 86.6976 98.4556 87.0024 98.3487 87.281ZM97.8852 91.5135C98.2223 91.5135 98.5496 91.3773 98.7894 91.1375C99.0292 90.8977 99.1654 90.5736 99.1654 90.2334L99.1654 90.1491C99.1654 89.8089 99.0292 89.4848 98.7894 89.245C98.5496 89.0052 98.2223 88.8691 97.8852 88.8691L82.339 88.8691C82.0019 88.8691 81.6746 89.0052 81.4348 89.245C81.195 89.4848 81.0621 89.8089 81.0621 90.1491L81.0621 90.2334C81.0621 90.5737 81.195 90.8978 81.4348 91.1375C81.6746 91.3773 82.0019 91.5135 82.339 91.5135L97.8852 91.5135ZM92.998 102.866L98.7732 102.866L98.7732 93.137L81.4506 93.137L81.4506 102.866L87.2259 102.866L87.2259 101.829C87.2259 101.1 87.5175 100.397 88.0328 99.8814C88.5514 99.3628 89.2514 99.0744 89.9806 99.0744L90.2432 99.0744C90.9724 99.0744 91.6757 99.3628 92.191 99.8814C92.7095 100.397 92.998 101.1 92.998 101.829L92.998 102.866ZM94.4856 116.377L96.8935 116.377L96.8935 104.49L92.998 104.49L92.998 107.471C92.998 107.918 92.635 108.281 92.1845 108.281L88.0394 108.281C87.589 108.281 87.226 107.918 87.226 107.471L87.226 104.49L83.3337 104.49L83.3337 116.377L85.7384 116.377L85.7384 114.209C85.7384 113.758 86.1014 113.395 86.5519 113.395C86.9991 113.395 87.3621 113.758 87.3621 114.209L87.3621 116.377L88.114 116.377L88.114 114.209C88.114 113.758 88.4769 113.395 88.9242 113.395C89.3747 113.395 89.7376 113.758 89.7376 114.209L89.7376 116.377L90.4863 116.377L90.4863 114.209C90.4863 113.758 90.8525 113.395 91.2997 113.395C91.747 113.395 92.11 113.758 92.11 114.209L92.11 116.377L92.8618 116.377L92.8618 114.209C92.8618 113.758 93.2248 113.395 93.6753 113.395C94.1226 113.395 94.4855 113.758 94.4855 114.209L94.4856 116.377ZM88.7655 85.5119L84.1991 85.5119C83.7194 85.5119 83.3337 85.9008 83.3337 86.3772C83.3337 86.6073 83.4245 86.8309 83.5865 86.993C83.7486 87.155 83.9689 87.2457 84.199 87.2457L96.0251 87.2457C96.5048 87.2457 96.8937 86.8569 96.8937 86.3772C96.8937 86.1503 96.7997 85.93 96.6377 85.7647C96.4756 85.6027 96.2552 85.5119 96.0251 85.5119L91.462 85.5119C91.0115 85.5119 90.6485 85.149 90.6485 84.6985C90.6485 84.2513 91.0115 83.8883 91.462 83.8883L93.4195 83.8883C93.8991 83.8883 94.2881 83.4994 94.2881 83.0198C94.2881 82.5434 93.8992 82.1545 93.4195 82.1545L91.462 82.1545C91.0115 82.1545 90.6485 81.7915 90.6485 81.341C90.6485 80.8938 91.0115 80.5309 91.462 80.5309L91.7083 80.5309C92.1879 80.5309 92.5736 80.142 92.5736 79.6623C92.5736 79.1859 92.188 78.797 91.7083 78.797L88.516 78.797C88.0363 78.797 87.6506 79.1859 87.6506 79.6623C87.6506 80.142 88.0363 80.5309 88.516 80.5309L88.7655 80.5309C89.2128 80.5309 89.5757 80.8938 89.5757 81.341C89.5757 81.7915 89.2128 82.1545 88.7655 82.1545L86.8048 82.1545C86.3251 82.1545 85.9362 82.5434 85.9362 83.0198C85.9362 83.4994 86.3251 83.8883 86.8048 83.8883L88.7655 83.8883C89.2128 83.8883 89.5757 84.2513 89.5757 84.6985C89.5757 85.149 89.2127 85.5119 88.7655 85.5119ZM91.3743 106.658L91.3744 101.829C91.3744 101.527 91.2544 101.242 91.0438 101.028C90.8299 100.818 90.5414 100.698 90.2433 100.698L89.9808 100.698C89.6826 100.698 89.3942 100.818 89.1835 101.028C88.9696 101.242 88.8497 101.527 88.8497 101.829L88.8497 106.658L91.3743 106.658Z" fill="#46C66D"/>
<path fill-rule="evenodd" clip-rule="evenodd" d="M26.4404 36.719C25.8441 36.6218 25.2834 36.3366 24.8523 35.9023C24.3078 35.3611 24 34.6222 24 33.8509V33.7666C24 33.1703 24.1815 32.5934 24.5185 32.1106C24.4375 31.9842 24.3889 31.8351 24.3889 31.6731V21.1119C24.3889 20.6874 24.5574 20.2791 24.8588 19.9777C25.1602 19.6795 25.5653 19.511 25.9899 19.511H26.2719V6.81018C26.2719 6.36296 26.6381 6 27.0853 6H42.2691C42.7163 6 43.0825 6.36296 43.0825 6.81018V19.511H43.3645C43.789 19.511 44.1941 19.6795 44.4956 19.9777C44.797 20.279 44.9655 20.6874 44.9655 21.1119V31.6731C44.9655 31.8351 44.9169 31.9842 44.8359 32.1106C45.1729 32.5935 45.3544 33.1703 45.3544 33.7666V33.8509C45.3544 34.6222 45.0465 35.3611 44.5021 35.9023C44.0678 36.3366 43.5104 36.6218 42.9108 36.719C43.0242 37.0009 43.0826 37.3088 43.0826 37.6231C43.0826 38.9971 41.9676 40.112 40.5903 40.112H40.3213C40.4218 40.381 40.4769 40.6726 40.4769 40.9805C40.4769 42.1505 39.6699 43.1324 38.5809 43.3982C38.7008 43.6866 38.7657 44.0042 38.7657 44.338C38.7657 45.281 38.2374 46.1074 37.4596 46.5287V57.9137C37.4596 59.1581 38.4675 60.166 39.712 60.166H46.022C46.6183 60.166 47.192 59.9294 47.6133 59.5049C48.0346 59.0836 48.2712 58.5132 48.2712 57.9136V36.7091C48.2712 34.6351 49.0944 32.6453 50.5625 31.1804C52.0274 29.7156 54.0173 28.8892 56.0915 28.8892H57.2971C61.6139 28.8892 65.1141 32.3925 65.1141 36.7091V63.0632C65.1141 63.5136 64.7511 63.8766 64.3039 63.8766C63.8534 63.8766 63.4904 63.5136 63.4904 63.0632V36.7091C63.4904 33.2869 60.7162 30.5161 57.2971 30.5161H56.0915C54.4484 30.5161 52.8733 31.1675 51.7131 32.3277C50.5497 33.4911 49.8982 35.0661 49.8982 36.7091V57.9136C49.8982 58.9442 49.4899 59.9294 48.7639 60.6553C48.0347 61.3812 47.0495 61.7896 46.0221 61.7896H39.7121C37.5699 61.7896 35.836 60.0558 35.836 57.9136V46.8273H33.5187V57.9136C33.5187 61.3359 36.2896 64.11 39.712 64.11H46.022C47.6652 64.11 49.2402 63.4554 50.4004 62.2952C51.5639 61.1318 52.2153 59.5567 52.2153 57.9137V36.7092C52.2153 35.6819 52.6237 34.6967 53.3497 33.9675C54.0756 33.2416 55.0641 32.8333 56.0915 32.8333H57.297C59.436 32.8333 61.1732 34.567 61.1732 36.7092V63.0632C61.1732 63.5137 60.8069 63.8767 60.3597 63.8767C59.9092 63.8767 59.5462 63.5137 59.5462 63.0632V36.7092C59.5462 35.4648 58.5384 34.4569 57.2971 34.4569H56.0915C55.4952 34.4569 54.9215 34.6968 54.5002 35.1181C54.0756 35.5393 53.8423 36.1129 53.8423 36.7093V57.9138C53.8423 59.9879 53.0159 61.9776 51.551 63.4425C50.0862 64.9106 48.0962 65.7337 46.022 65.7337H39.712C35.3952 65.7337 31.895 62.2337 31.895 57.9138V46.5288C31.1172 46.1075 30.5889 45.2811 30.5889 44.3381C30.5889 44.0043 30.6537 43.6867 30.7704 43.3983C29.6847 43.1325 28.8778 42.1506 28.8778 40.9806C28.8778 40.6728 28.9329 40.3811 29.0333 40.1121H28.7643C28.1032 40.1121 27.468 39.8496 27.0013 39.3829C26.5346 38.9163 26.2721 38.2811 26.2721 37.6232C26.2721 37.3024 26.3334 36.9976 26.4404 36.719ZM26.9038 32.4865C26.5668 32.4865 26.2394 32.6227 25.9997 32.8625C25.7598 33.1023 25.6237 33.4264 25.6237 33.7666V33.8509C25.6237 34.1911 25.7598 34.5152 25.9997 34.755C26.2395 34.9948 26.5668 35.1309 26.9038 35.1309H42.4501C42.7872 35.1309 43.1145 34.9948 43.3543 34.755C43.5941 34.5152 43.727 34.1911 43.727 33.8509V33.7666C43.727 33.4263 43.5941 33.1022 43.3543 32.8625C43.1145 32.6227 42.7871 32.4865 42.4501 32.4865H26.9038ZM31.7911 21.1339H26.0158V30.863H43.3384V21.1339H37.5632V22.1709C37.5632 22.9001 37.2715 23.6034 36.7562 24.1186C36.2377 24.6372 35.5376 24.9256 34.8084 24.9256H34.5459C33.8167 24.9256 33.1134 24.6372 32.5981 24.1186C32.0796 23.6034 31.7911 22.9001 31.7911 22.1709L31.7911 21.1339ZM30.3035 7.62337H27.8955V19.5103H31.7911V16.5288C31.7911 16.0816 32.154 15.7186 32.6045 15.7186H36.7496C37.2001 15.7186 37.5631 16.0816 37.5631 16.5288V19.5103H41.4554V7.62337H39.0507V9.79144C39.0507 10.2419 38.6877 10.6049 38.2372 10.6049C37.79 10.6049 37.427 10.2419 37.427 9.79144V7.62337H36.6751V9.79144C36.6751 10.2419 36.3121 10.6049 35.8649 10.6049C35.4144 10.6049 35.0514 10.2419 35.0514 9.79144V7.62337H34.3028V9.79144C34.3028 10.2419 33.9366 10.6049 33.4893 10.6049C33.0421 10.6049 32.6791 10.2419 32.6791 9.79144V7.62337H31.9272V9.79144C31.9272 10.2419 31.5642 10.6049 31.1137 10.6049C30.6665 10.6049 30.3035 10.2419 30.3035 9.79144L30.3035 7.62337ZM36.0236 38.4881H40.59C41.0696 38.4881 41.4553 38.0992 41.4553 37.6228C41.4553 37.3927 41.3646 37.1691 41.2026 37.007C41.0405 36.845 40.8201 36.7543 40.59 36.7543H28.764C28.2843 36.7543 27.8954 37.1431 27.8954 37.6228C27.8954 37.8497 27.9894 38.07 28.1514 38.2353C28.3135 38.3973 28.5338 38.4881 28.7639 38.4881H33.3271C33.7776 38.4881 34.1406 38.851 34.1406 39.3015C34.1406 39.7487 33.7776 40.1117 33.3271 40.1117H31.3696C30.8899 40.1117 30.501 40.5006 30.501 40.9802C30.501 41.4566 30.8899 41.8455 31.3696 41.8455H33.3271C33.7776 41.8455 34.1406 42.2085 34.1406 42.659C34.1406 43.1062 33.7776 43.4691 33.3271 43.4691H33.0808C32.6011 43.4691 32.2154 43.858 32.2154 44.3377C32.2154 44.8141 32.6011 45.203 33.0808 45.203H36.2731C36.7527 45.203 37.1384 44.8141 37.1384 44.3377C37.1384 43.858 36.7528 43.4691 36.2731 43.4691H36.0236C35.5763 43.4691 35.2133 43.1062 35.2133 42.659C35.2133 42.2085 35.5763 41.8455 36.0236 41.8455H37.9843C38.4639 41.8455 38.8529 41.4566 38.8529 40.9802C38.8529 40.5006 38.464 40.1117 37.9843 40.1117H36.0236C35.5763 40.1117 35.2133 39.7487 35.2133 39.3015C35.2133 38.851 35.5764 38.4881 36.0236 38.4881ZM33.4147 17.3425V22.1712C33.4147 22.4726 33.5346 22.7577 33.7453 22.9716C33.9592 23.1823 34.2476 23.3022 34.5458 23.3022H34.8083C35.1065 23.3022 35.3949 23.1823 35.6056 22.9716C35.8195 22.7577 35.9394 22.4726 35.9394 22.1712V17.3425H33.4147Z" fill="black"/>
</svg>
