<svg width="118" height="79" viewBox="0 0 118 79" fill="none" xmlns="http://www.w3.org/2000/svg">
<path d="M68.9083 3.12547V40.4309H0.5625V3.12547C0.5625 1.71014 1.71014 0.5625 3.12547 0.5625H66.3453C67.7606 0.5625 68.9083 1.71014 68.9083 3.12547Z" fill="#6DD6B2" stroke="#023B29" stroke-width="1.125" stroke-miterlimit="10"/>
<path d="M68.9083 40.4307V43.5632C68.9083 44.9785 67.7606 46.1261 66.3453 46.1261H3.12547C1.71014 46.1261 0.5625 44.9785 0.5625 43.5632V40.4307H68.9083Z" fill="#34C493" stroke="#023B29" stroke-width="1.125" stroke-miterlimit="10"/>
<path d="M23.3438 57.5173H46.1257" stroke="#023B29" stroke-width="1.125" stroke-miterlimit="10"/>
<path d="M34.7363 46.1262V57.5172" stroke="#023B29" stroke-width="1.125" stroke-miterlimit="10"/>
<path d="M68.9538 40.4307H68.9082" stroke="#023B29" stroke-width="1.125" stroke-miterlimit="10"/>
<path d="M116.768 23.0593V60.3647H48.4219V23.0593C48.4219 21.644 49.5695 20.4963 50.9848 20.4963H114.205C115.62 20.4963 116.768 21.644 116.768 23.0593Z" fill="#D1F2E7" stroke="#023B29" stroke-width="1.125" stroke-miterlimit="10"/>
<path d="M116.768 60.365V63.4975C116.768 64.9128 115.62 66.0605 114.205 66.0605H50.9848C49.5695 66.0605 48.4219 64.9128 48.4219 63.4975V60.365H116.768Z" fill="#A7E6D0" stroke="#023B29" stroke-width="1.125" stroke-miterlimit="10"/>
<path d="M71.2031 77.4512H93.9851" stroke="#023B29" stroke-width="1.125" stroke-miterlimit="10"/>
<path d="M82.5938 66.0605V77.4515" stroke="#023B29" stroke-width="1.125" stroke-miterlimit="10"/>
<path d="M116.813 60.365H116.768" stroke="#023B29" stroke-width="1.125" stroke-miterlimit="10"/>
</svg>
