<svg width="80" height="80" viewBox="0 0 80 80" fill="none" xmlns="http://www.w3.org/2000/svg">
<g clip-path="url(#clip0_6049_11997)">
<rect width="80" height="80" fill="white" style="mix-blend-mode:multiply"/>
<path d="M74.0741 7.40741C74.0741 8.22519 73.4104 8.88889 72.5926 8.88889C71.7778 8.88889 71.1111 8.22519 71.1111 7.40741C71.1111 6.58963 71.7778 5.92593 72.5926 5.92593C73.4104 5.92593 74.0741 6.58963 74.0741 7.40741ZM78.5185 0C77.7037 0 77.037 0.663704 77.037 1.48148C77.037 2.29926 77.7037 2.96296 78.5185 2.96296C79.3363 2.96296 80 2.29926 80 1.48148C80 0.663704 79.3363 0 78.5185 0ZM66.6667 11.8519C65.8519 11.8519 65.1852 12.5156 65.1852 13.3333C65.1852 14.1511 65.8519 14.8148 66.6667 14.8148C67.4844 14.8148 68.1481 14.1511 68.1481 13.3333C68.1481 12.5156 67.4844 11.8519 66.6667 11.8519ZM13.3333 65.1852C12.5185 65.1852 11.8519 65.8489 11.8519 66.6667C11.8519 67.4844 12.5185 68.1481 13.3333 68.1481C14.1511 68.1481 14.8148 67.4844 14.8148 66.6667C14.8148 65.8489 14.1511 65.1852 13.3333 65.1852ZM7.40741 71.1111C6.59259 71.1111 5.92593 71.7748 5.92593 72.5926C5.92593 73.4104 6.59259 74.0741 7.40741 74.0741C8.22519 74.0741 8.88889 73.4104 8.88889 72.5926C8.88889 71.7748 8.22519 71.1111 7.40741 71.1111ZM1.48148 77.037C0.666667 77.037 0 77.7007 0 78.5185C0 79.3363 0.666667 80 1.48148 80C2.29926 80 2.96296 79.3363 2.96296 78.5185C2.96296 77.7007 2.29926 77.037 1.48148 77.037ZM79.2741 77.763L62.4444 60.9363C67.7748 55.2326 70.6963 47.84 70.6963 40C70.6963 23.0756 56.9274 9.3037 40 9.3037C23.0756 9.3037 9.3037 23.0756 9.3037 40C9.3037 56.9274 23.0726 70.6963 40 70.6963C47.84 70.6963 55.2356 67.7748 60.9363 62.4444L77.763 79.2741L79.2741 77.763ZM68.563 40C68.563 47.6267 65.5911 54.797 60.1956 60.1926C54.8 65.5882 47.6267 68.563 40 68.563C24.2519 68.563 11.437 55.7511 11.437 40C11.437 24.2489 24.2519 11.437 40 11.437C55.7481 11.437 68.563 24.2519 68.563 40ZM32.1778 54.8148V48.8889C32.1778 48.2993 31.7007 47.8222 31.1111 47.8222H25.1852C24.5956 47.8222 24.1185 48.2993 24.1185 48.8889V54.8148C24.1185 55.4044 24.5956 55.8815 25.1852 55.8815H31.1111C31.7007 55.8815 32.1778 55.4044 32.1778 54.8148ZM26.2519 49.9556H30.0444V53.7452H26.2519V49.9556ZM44.0296 42.963V37.037C44.0296 36.4474 43.5526 35.9704 42.963 35.9704H37.037C36.4474 35.9704 35.9704 36.4474 35.9704 37.037V42.963C35.9704 43.5526 36.4474 44.0296 37.037 44.0296H42.963C43.5526 44.0296 44.0296 43.5526 44.0296 42.963ZM38.1037 38.1037H41.8963V41.8963H38.1037V38.1037ZM55.8815 31.1111V25.1852C55.8815 24.5956 55.4044 24.1185 54.8148 24.1185H48.8889C48.2993 24.1185 47.8222 24.5956 47.8222 25.1852V31.1111C47.8222 31.7007 48.2993 32.1778 48.8889 32.1778H54.8148C55.4044 32.1778 55.8815 31.7007 55.8815 31.1111ZM49.9556 26.2519H53.7452V30.0444H49.9556V26.2519Z" fill="#595959"/>
<path d="M44.028 37.037V42.9629C44.028 43.5526 43.551 44.0296 42.9613 44.0296H37.0354C36.4458 44.0296 35.9688 43.5526 35.9688 42.9629V37.037C35.9688 36.4474 36.4458 35.9703 37.0354 35.9703H42.9613C43.551 35.9703 44.028 36.4474 44.028 37.037Z" fill="url(#paint0_linear_6049_11997)"/>
</g>
<defs>
<linearGradient id="paint0_linear_6049_11997" x1="35.9688" y1="40" x2="44.028" y2="40" gradientUnits="userSpaceOnUse">
<stop stop-color="#0D74FF"/>
<stop offset="1" stop-color="#51E12B"/>
</linearGradient>
<clipPath id="clip0_6049_11997">
<rect width="80" height="80" fill="white"/>
</clipPath>
</defs>
</svg>
