<svg width="16" height="17" viewBox="0 0 16 17" fill="none" xmlns="http://www.w3.org/2000/svg">
<rect width="16" height="16" transform="translate(0 0.5)" fill="white" style="mix-blend-mode:multiply"/>
<path d="M13.4967 8.87971C13.4967 8.75471 13.4967 8.62971 13.4967 8.49971C13.4967 8.36971 13.4967 8.24471 13.4967 8.11471L14.4567 7.27471C14.6337 7.11874 14.7498 6.90523 14.7846 6.67192C14.8193 6.4386 14.7705 6.20051 14.6467 5.99971L13.4667 3.99972C13.379 3.84785 13.253 3.72171 13.1011 3.63395C12.9493 3.54619 12.7771 3.49989 12.6017 3.49971C12.493 3.49888 12.3849 3.51577 12.2817 3.54972L11.0667 3.95972C10.8569 3.82032 10.6381 3.69504 10.4117 3.58472L10.1567 2.32472C10.111 2.09452 9.98575 1.88774 9.80294 1.74057C9.62012 1.5934 9.39136 1.51522 9.15671 1.51971H6.81671C6.58206 1.51522 6.3533 1.5934 6.17048 1.74057C5.98766 1.88774 5.86243 2.09452 5.81671 2.32472L5.56171 3.58472C5.33367 3.69502 5.11319 3.82029 4.90171 3.95972L3.71171 3.52972C3.60736 3.50253 3.49929 3.4924 3.39171 3.49971C3.21635 3.49989 3.04411 3.54619 2.89229 3.63395C2.74047 3.72171 2.61439 3.84785 2.52671 3.99972L1.34671 5.99971C1.23 6.20021 1.18663 6.43504 1.22403 6.664C1.26143 6.89295 1.37727 7.10178 1.55171 7.25471L2.49671 8.11971C2.49671 8.24471 2.49671 8.36971 2.49671 8.49971C2.49671 8.62971 2.49671 8.75471 2.49671 8.88472L1.55171 9.72472C1.37234 9.87871 1.25334 10.0913 1.21581 10.3247C1.17828 10.5581 1.22466 10.7973 1.34671 10.9997L2.52671 12.9997C2.61439 13.1516 2.74047 13.2777 2.89229 13.3655C3.04411 13.4532 3.21635 13.4995 3.39171 13.4997C3.50038 13.5005 3.60847 13.4837 3.71171 13.4497L4.92671 13.0397C5.13648 13.1791 5.3553 13.3044 5.58171 13.4147L5.83671 14.6747C5.88243 14.9049 6.00766 15.1117 6.19048 15.2589C6.3733 15.406 6.60206 15.4842 6.83671 15.4797H9.19671C9.43136 15.4842 9.66012 15.406 9.84294 15.2589C10.0258 15.1117 10.151 14.9049 10.1967 14.6747L10.4517 13.4147C10.6797 13.3044 10.9002 13.1791 11.1117 13.0397L12.3217 13.4497C12.4249 13.4837 12.533 13.5005 12.6417 13.4997C12.8171 13.4995 12.9893 13.4532 13.1411 13.3655C13.293 13.2777 13.419 13.1516 13.5067 12.9997L14.6467 10.9997C14.7634 10.7992 14.8068 10.5644 14.7694 10.3354C14.732 10.1065 14.6161 9.89765 14.4417 9.74471L13.4967 8.87971ZM12.6017 12.4997L10.8867 11.9197C10.4852 12.2598 10.0264 12.5256 9.53171 12.7047L9.17671 14.4997H6.81671L6.46171 12.7247C5.97092 12.5405 5.51457 12.2751 5.11171 11.9397L3.39171 12.4997L2.21171 10.4997L3.57171 9.29972C3.47926 8.78214 3.47926 8.25229 3.57171 7.73471L2.21171 6.49971L3.39171 4.49972L5.10671 5.07972C5.50818 4.73966 5.96701 4.47384 6.46171 4.29472L6.81671 2.49971H9.17671L9.53171 4.27472C10.0225 4.45893 10.4788 4.72429 10.8817 5.05972L12.6017 4.49972L13.7817 6.49971L12.4217 7.69971C12.5142 8.21729 12.5142 8.74714 12.4217 9.26472L13.7817 10.4997L12.6017 12.4997Z" fill="#474747"/>
<path d="M7.99671 11.4997C7.40336 11.4997 6.82335 11.3238 6.33 10.9941C5.83665 10.6645 5.45213 10.1959 5.22507 9.64777C4.99801 9.09959 4.9386 8.49639 5.05435 7.91444C5.17011 7.3325 5.45583 6.79795 5.87539 6.3784C6.29495 5.95884 6.82949 5.67312 7.41144 5.55736C7.99338 5.4416 8.59658 5.50101 9.14476 5.72808C9.69294 5.95514 10.1615 6.33966 10.4911 6.833C10.8208 7.32635 10.9967 7.90637 10.9967 8.49972C11.0007 8.8948 10.9259 9.28671 10.7765 9.65249C10.6272 10.0183 10.4063 10.3506 10.127 10.63C9.84759 10.9094 9.51528 11.1302 9.14949 11.2795C8.7837 11.4289 8.39179 11.5037 7.99671 11.4997ZM7.99671 6.49972C7.73238 6.49356 7.46955 6.54108 7.22412 6.63941C6.97868 6.73774 6.75574 6.88483 6.56878 7.07179C6.38183 7.25875 6.23473 7.48169 6.1364 7.72712C6.03807 7.97256 5.99055 8.23539 5.99671 8.49972C5.99055 8.76404 6.03807 9.02687 6.1364 9.27231C6.23473 9.51774 6.38183 9.74068 6.56878 9.92764C6.75574 10.1146 6.97868 10.2617 7.22412 10.36C7.46955 10.4583 7.73238 10.5059 7.99671 10.4997C8.26104 10.5059 8.52387 10.4583 8.7693 10.36C9.01473 10.2617 9.23767 10.1146 9.42463 9.92764C9.61159 9.74068 9.75868 9.51774 9.85701 9.27231C9.95534 9.02687 10.0029 8.76404 9.99671 8.49972C10.0029 8.23539 9.95534 7.97256 9.85701 7.72712C9.75868 7.48169 9.61159 7.25875 9.42463 7.07179C9.23767 6.88483 9.01473 6.73774 8.7693 6.63941C8.52387 6.54108 8.26104 6.49356 7.99671 6.49972Z" fill="#474747"/>
</svg>
