<svg width="124" height="124" viewBox="0 0 124 124" fill="none" xmlns="http://www.w3.org/2000/svg">
<rect width="124" height="124" fill="white" fill-opacity="0.01" style="mix-blend-mode:multiply"/>
<path d="M104.081 17H19.919C19.1451 17.0008 18.4031 17.3086 17.8558 17.8558C17.3086 18.4031 17.0008 19.1451 17 19.919V83.195C17.0008 83.9689 17.3086 84.7109 17.8558 85.2582C18.4031 85.8054 19.1451 86.1132 19.919 86.114H52.608C52.115 92.906 46.796 98.272 40.325 98.272C40.218 98.2722 40.1118 98.289 40.01 98.322C38.9229 98.488 37.9386 99.0582 37.2539 99.9187C36.5692 100.779 36.2346 101.866 36.3169 102.963C36.3993 104.06 36.8927 105.085 37.6983 105.833C38.5039 106.582 39.5623 106.998 40.662 107H83.338C84.4377 106.998 85.4961 106.582 86.3017 105.833C87.1073 105.085 87.6007 104.06 87.6831 102.963C87.7654 101.866 87.4308 100.779 86.7461 99.9187C86.0614 99.0582 85.0771 98.488 83.99 98.322C83.8883 98.289 83.782 98.2721 83.675 98.272C77.204 98.272 71.885 92.906 71.392 86.114H104.081C104.855 86.1132 105.597 85.8054 106.144 85.2582C106.691 84.7109 106.999 83.9689 107 83.195V19.919C106.999 19.1451 106.691 18.4031 106.144 17.8558C105.597 17.3086 104.855 17.0008 104.081 17ZM19.919 19.061H104.081C104.308 19.0613 104.527 19.1517 104.687 19.3126C104.848 19.4734 104.939 19.6915 104.939 19.919V74.619H19.061V19.919C19.0613 19.6915 19.1517 19.4734 19.3126 19.3126C19.4734 19.1517 19.6915 19.0613 19.919 19.061ZM85.64 102.636C85.64 103.246 85.3977 103.831 84.9663 104.262C84.535 104.694 83.95 104.936 83.34 104.936H40.662C40.052 104.936 39.467 104.694 39.0357 104.262C38.6043 103.831 38.362 103.246 38.362 102.636C38.362 102.026 38.6043 101.441 39.0357 101.01C39.467 100.578 40.052 100.336 40.662 100.336H83.338C83.6402 100.336 83.9395 100.395 84.2188 100.511C84.4981 100.626 84.7519 100.795 84.9656 101.009C85.1794 101.223 85.349 101.476 85.4647 101.755C85.5804 102.035 85.64 102.334 85.64 102.636ZM76.46 98.273H47.54C49.6127 96.9618 51.3419 95.1742 52.5835 93.0591C53.8252 90.9441 54.5433 88.5629 54.678 86.114H69.322C69.4567 88.5629 70.1748 90.9441 71.4165 93.0591C72.6581 95.1742 74.3873 96.9618 76.46 98.273ZM104.081 84.053H19.919C19.6915 84.0527 19.4734 83.9623 19.3126 83.8014C19.1517 83.6406 19.0613 83.4225 19.061 83.195V76.681H104.939V83.195C104.939 83.4225 104.848 83.6406 104.687 83.8014C104.527 83.9623 104.308 84.0527 104.081 84.053ZM28.178 39.34L32.77 40.646V54.057C32.1845 54.2314 31.6532 54.5526 31.2268 54.9902C30.8005 55.4278 30.4931 55.9671 30.3339 56.557C30.1748 57.1469 30.1692 57.7676 30.3176 58.3603C30.4661 58.9529 30.7636 59.4978 31.182 59.943L29.44 65.473C29.3915 65.6274 29.38 65.791 29.4065 65.9506C29.4329 66.1102 29.4966 66.2614 29.5923 66.3918C29.688 66.5223 29.8131 66.6284 29.9574 66.7016C30.1017 66.7747 30.2612 66.8129 30.423 66.813H37.178C37.3398 66.8129 37.4993 66.7747 37.6436 66.7016C37.7879 66.6284 37.913 66.5223 38.0087 66.3918C38.1044 66.2614 38.1681 66.1102 38.1945 65.9506C38.221 65.791 38.2095 65.6274 38.161 65.473L36.419 59.943C36.8371 59.4977 37.1344 58.9528 37.2827 58.3602C37.431 57.7677 37.4253 57.147 37.2662 56.5572C37.1071 55.9674 36.7998 55.4282 36.3736 54.9906C35.9474 54.553 35.4164 54.2316 34.831 54.057V41.232L39.547 42.573V59.173C39.547 59.3162 39.5768 59.4579 39.6346 59.589C39.6923 59.7201 39.7768 59.8377 39.8826 59.9343C39.9883 60.031 40.113 60.1045 40.2488 60.1502C40.3845 60.196 40.5283 60.2129 40.671 60.2C42.559 60.029 44.53 59.942 46.529 59.942C52.602 59.942 58.404 60.773 62.05 62.166C62.2866 62.2567 62.5484 62.2567 62.785 62.166C66.431 60.773 72.234 59.942 78.307 59.942C80.007 59.942 81.707 60.006 83.343 60.132C83.4847 60.143 83.6271 60.1246 83.7613 60.078C83.8955 60.0313 84.0186 59.9574 84.1229 59.8608C84.2271 59.7643 84.3103 59.6472 84.3671 59.5169C84.4239 59.3867 84.4532 59.2461 84.453 59.104V42.573L95.822 39.34C96.0377 39.2789 96.2276 39.149 96.3629 38.9702C96.4981 38.7913 96.5713 38.5732 96.5713 38.349C96.5713 38.1248 96.4981 37.9067 96.3629 37.7278C96.2276 37.549 96.0377 37.4191 95.822 37.358L62.282 27.821C62.0977 27.768 61.9023 27.768 61.718 27.821L28.178 37.358C27.9623 37.4191 27.7724 37.549 27.6371 37.7278C27.5019 37.9067 27.4287 38.1248 27.4287 38.349C27.4287 38.5732 27.5019 38.7913 27.6371 38.9702C27.7724 39.149 27.9623 39.2789 28.178 39.34ZM31.828 64.752L33.011 61C33.5305 61.12 34.0705 61.12 34.59 61L35.773 64.757L31.828 64.752ZM35.328 57.495C35.328 57.7975 35.2383 58.0931 35.0702 58.3446C34.9022 58.596 34.6633 58.792 34.3839 58.9077C34.1044 59.0234 33.797 59.0536 33.5003 58.9945C33.2037 58.9355 32.9313 58.7897 32.7175 58.5758C32.5037 58.3619 32.3581 58.0893 32.2993 57.7927C32.2404 57.496 32.2708 57.1886 32.3867 56.9092C32.5026 56.6298 32.6987 56.3911 32.9503 56.2232C33.2018 56.0553 33.4975 55.9658 33.8 55.966C34.0012 55.9661 34.2003 56.0059 34.3861 56.0831C34.5719 56.1603 34.7406 56.2734 34.8826 56.4159C35.0247 56.5584 35.1372 56.7275 35.2138 56.9135C35.2904 57.0995 35.3295 57.2988 35.329 57.5L35.328 57.495ZM82.391 53.413C81.157 53.323 79.891 53.265 78.61 53.241C78.341 53.2428 78.0834 53.3496 77.8922 53.5387C77.7009 53.7277 77.591 53.9841 77.5861 54.253C77.5811 54.5219 77.6814 54.7821 77.8656 54.9781C78.0498 55.174 78.3033 55.2903 78.572 55.302C79.872 55.326 81.147 55.387 82.391 55.48V58C81.05 57.92 79.681 57.88 78.306 57.88C72.098 57.88 66.34 58.688 62.417 60.103C58.494 58.688 52.736 57.88 46.528 57.88C44.86 57.88 43.21 57.939 41.607 58.055V55.423C47.653 55.051 55.699 55.416 61.213 57.523C61.45 57.6136 61.712 57.6136 61.949 57.523C65.957 56.1616 70.1518 55.4293 74.384 55.352C74.5192 55.3462 74.6519 55.3139 74.7746 55.2568C74.8973 55.1997 75.0076 55.119 75.0991 55.0194C75.1906 54.9197 75.2616 54.8029 75.308 54.6758C75.3544 54.5487 75.3753 54.4137 75.3695 54.2785C75.3637 54.1433 75.3314 54.0106 75.2743 53.8879C75.2172 53.7652 75.1365 53.6549 75.0369 53.5634C74.9372 53.4719 74.8204 53.4009 74.6933 53.3545C74.5662 53.3081 74.4312 53.2872 74.296 53.293C69.9759 53.4006 65.6938 54.1304 61.582 55.46C54.665 52.945 45.563 53.127 41.608 53.36V43.16L61.718 48.878C61.9022 48.9313 62.0978 48.9313 62.282 48.878L82.392 43.16L82.391 53.413ZM62 29.883L91.773 38.349L62 46.815L34.107 38.883L32.228 38.349L62 29.883Z" fill="black"/>
<path d="M28.1789 39.34L32.7709 40.646V54.057C32.1854 54.2314 31.6542 54.5526 31.2278 54.9902C30.8014 55.4278 30.494 55.9671 30.3349 56.557C30.1757 57.1469 30.1701 57.7676 30.3186 58.3603C30.467 58.9529 30.7645 59.4978 31.1829 59.943L29.4409 65.473C29.3924 65.6274 29.381 65.791 29.4074 65.9506C29.4339 66.1102 29.4975 66.2614 29.5932 66.3918C29.6889 66.5223 29.814 66.6284 29.9583 66.7016C30.1026 66.7747 30.2621 66.8129 30.4239 66.813H37.1789C37.3407 66.8129 37.5002 66.7747 37.6446 66.7016C37.7889 66.6284 37.9139 66.5223 38.0096 66.3918C38.1053 66.2614 38.169 66.1102 38.1955 65.9506C38.2219 65.791 38.2104 65.6274 38.1619 65.473L36.4199 59.943C36.8381 59.4977 37.1354 58.9528 37.2837 58.3602C37.4319 57.7677 37.4262 57.147 37.2671 56.5572C37.108 55.9675 36.8008 55.4282 36.3745 54.9906C35.9483 54.553 35.4173 54.2316 34.8319 54.057V41.232L39.5479 42.573V59.173C39.5479 59.3163 39.5777 59.4579 39.6355 59.589C39.6933 59.7201 39.7777 59.8377 39.8835 59.9343C39.9892 60.031 40.114 60.1045 40.2497 60.1502C40.3855 60.196 40.5293 60.2129 40.6719 60.2C42.5599 60.029 44.5309 59.942 46.5299 59.942C52.6029 59.942 58.4049 60.773 62.0509 62.166C62.2876 62.2567 62.5493 62.2567 62.7859 62.166C66.4319 60.773 72.2349 59.942 78.3079 59.942C80.0079 59.942 81.7079 60.006 83.3439 60.132C83.4856 60.143 83.628 60.1246 83.7622 60.078C83.8965 60.0313 84.0196 59.9574 84.1238 59.8608C84.2281 59.7643 84.3112 59.6472 84.368 59.5169C84.4248 59.3867 84.4541 59.2461 84.4539 59.104V42.573L95.8229 39.34C96.0387 39.2789 96.2286 39.149 96.3638 38.9702C96.499 38.7913 96.5722 38.5732 96.5722 38.349C96.5722 38.1248 96.499 37.9067 96.3638 37.7278C96.2286 37.549 96.0387 37.4191 95.8229 37.358L62.2829 27.821C62.0987 27.768 61.9032 27.768 61.7189 27.821L28.1789 37.358C27.9632 37.4191 27.7733 37.549 27.6381 37.7278C27.5029 37.9067 27.4297 38.1248 27.4297 38.349C27.4297 38.5732 27.5029 38.7913 27.6381 38.9702C27.7733 39.149 27.9632 39.2789 28.1789 39.34ZM31.8289 64.752L33.0119 61C33.5314 61.12 34.0714 61.12 34.5909 61L35.7739 64.757L31.8289 64.752ZM35.3289 57.495C35.3289 57.7975 35.2392 58.0931 35.0712 58.3446C34.9031 58.596 34.6643 58.792 34.3848 58.9077C34.1054 59.0234 33.7979 59.0536 33.5013 58.9946C33.2047 58.9355 32.9322 58.7898 32.7184 58.5758C32.5046 58.3619 32.3591 58.0893 32.3002 57.7927C32.2413 57.496 32.2717 57.1886 32.3876 56.9092C32.5035 56.6298 32.6996 56.3911 32.9512 56.2232C33.2028 56.0553 33.4985 55.9658 33.8009 55.966C34.0021 55.9661 34.2013 56.0059 34.3871 56.0831C34.5728 56.1603 34.7416 56.2734 34.8836 56.4159C35.0256 56.5584 35.1381 56.7275 35.2147 56.9135C35.2913 57.0995 35.3305 57.2988 35.3299 57.5L35.3289 57.495ZM82.3919 53.413C81.1579 53.323 79.8919 53.265 78.6109 53.241C78.342 53.2428 78.0844 53.3496 77.8931 53.5387C77.7018 53.7277 77.5919 53.9841 77.587 54.253C77.582 54.5219 77.6824 54.7821 77.8665 54.9781C78.0507 55.1741 78.3042 55.2903 78.5729 55.302C79.8729 55.326 81.1479 55.387 82.3919 55.48V58C81.0509 57.92 79.6819 57.88 78.3069 57.88C72.0989 57.88 66.3409 58.688 62.4179 60.103C58.4949 58.688 52.7369 57.88 46.5289 57.88C44.8609 57.88 43.2109 57.939 41.6079 58.055V55.423C47.6539 55.051 55.6999 55.416 61.2139 57.523C61.4509 57.6137 61.713 57.6137 61.9499 57.523C65.958 56.1616 70.1527 55.4293 74.3849 55.352C74.5201 55.3462 74.6529 55.3139 74.7756 55.2568C74.8983 55.1997 75.0085 55.119 75.1 55.0194C75.1915 54.9197 75.2625 54.8029 75.3089 54.6758C75.3553 54.5487 75.3762 54.4137 75.3704 54.2785C75.3647 54.1433 75.3323 54.0106 75.2752 53.8879C75.2182 53.7652 75.1375 53.6549 75.0378 53.5634C74.9381 53.4719 74.8214 53.4009 74.6943 53.3545C74.5671 53.3081 74.4321 53.2872 74.2969 53.293C69.9768 53.4006 65.6948 54.1304 61.5829 55.46C54.6659 52.945 45.5639 53.127 41.6089 53.36V43.16L61.7189 48.878C61.9032 48.9313 62.0987 48.9313 62.2829 48.878L82.3929 43.16L82.3919 53.413ZM62.0009 29.883L91.7739 38.349L62.0009 46.815L34.1079 38.883L32.2289 38.349L62.0009 29.883Z" fill="#46C66D"/>
</svg>
