<svg width="90" height="90" viewBox="0 0 90 90" fill="none" xmlns="http://www.w3.org/2000/svg">
<path d="M25.2579 2.80444H4.16016V13.3533H25.2579V2.80444Z" fill="#A7E6D0" stroke="#023B29" stroke-width="1.125" stroke-miterlimit="10"/>
<path d="M25.2869 13.3533H4.05727C3.3698 13.3533 2.8125 13.9106 2.8125 14.598V22.6574C2.8125 23.3448 3.3698 23.9021 4.05727 23.9021H25.2869C25.9744 23.9021 26.5317 23.3448 26.5317 22.6574V14.598C26.5317 13.9106 25.9744 13.3533 25.2869 13.3533Z" fill="#34C493" stroke="#023B29" stroke-width="1.125" stroke-miterlimit="10"/>
<path d="M9.4346 34.451H19.9835L25.2579 23.9021H4.16016L9.4346 34.451Z" fill="#D1F2E7" stroke="#023B29" stroke-width="1.125" stroke-miterlimit="10"/>
<path d="M9.43555 2.80444V5.62099" stroke="#023B29" stroke-width="1.125" stroke-miterlimit="10"/>
<path d="M14.709 2.80444V5.62099" stroke="#023B29" stroke-width="1.125" stroke-miterlimit="10"/>
<path d="M19.9844 2.80444V5.62099" stroke="#023B29" stroke-width="1.125" stroke-miterlimit="10"/>
<path d="M22.6445 2.80444V5.62099" stroke="#023B29" stroke-width="1.125" stroke-miterlimit="10"/>
<path d="M6.80859 2.80444V5.62099" stroke="#023B29" stroke-width="1.125" stroke-miterlimit="10"/>
<path d="M12.082 2.80444V5.62099" stroke="#023B29" stroke-width="1.125" stroke-miterlimit="10"/>
<path d="M17.3574 2.80444V5.62099" stroke="#023B29" stroke-width="1.125" stroke-miterlimit="10"/>
<path d="M14.6702 16.0248C16.1471 16.0248 17.3444 14.8275 17.3444 13.3507C17.3444 11.8738 16.1471 10.6765 14.6702 10.6765C13.1934 10.6765 11.9961 11.8738 11.9961 13.3507C11.9961 14.8275 13.1934 16.0248 14.6702 16.0248Z" fill="#D1F2E7" stroke="#023B29" stroke-width="1.125" stroke-miterlimit="10"/>
<path d="M64.7421 87.1951H85.8398V76.6462H64.7421V87.1951Z" fill="#A7E6D0" stroke="#023B29" stroke-width="1.125" stroke-miterlimit="10"/>
<path d="M64.7131 76.6465H85.9427C86.6302 76.6465 87.1875 76.0892 87.1875 75.4017V67.3424C87.1875 66.6549 86.6302 66.0976 85.9427 66.0976H64.7131C64.0257 66.0976 63.4683 66.6549 63.4683 67.3424V75.4017C63.4683 76.0892 64.0257 76.6465 64.7131 76.6465Z" fill="#34C493" stroke="#023B29" stroke-width="1.125" stroke-miterlimit="10"/>
<path d="M80.5655 55.5486H70.0166L64.7422 66.0974H85.8399L80.5655 55.5486Z" fill="#D1F2E7" stroke="#023B29" stroke-width="1.125" stroke-miterlimit="10"/>
<path d="M80.5645 87.1955V84.3789" stroke="#023B29" stroke-width="1.125" stroke-miterlimit="10"/>
<path d="M75.291 87.1955V84.3789" stroke="#023B29" stroke-width="1.125" stroke-miterlimit="10"/>
<path d="M70.0176 87.1955V84.3789" stroke="#023B29" stroke-width="1.125" stroke-miterlimit="10"/>
<path d="M67.3574 87.1955V84.3789" stroke="#023B29" stroke-width="1.125" stroke-miterlimit="10"/>
<path d="M83.1953 87.1955V84.3789" stroke="#023B29" stroke-width="1.125" stroke-miterlimit="10"/>
<path d="M77.9219 87.1955V84.3789" stroke="#023B29" stroke-width="1.125" stroke-miterlimit="10"/>
<path d="M72.6465 87.1955V84.3789" stroke="#023B29" stroke-width="1.125" stroke-miterlimit="10"/>
<path d="M75.3284 79.3234C76.8053 79.3234 78.0026 78.1261 78.0026 76.6492C78.0026 75.1723 76.8053 73.9751 75.3284 73.9751C73.8516 73.9751 72.6543 75.1723 72.6543 76.6492C72.6543 78.1261 73.8516 79.3234 75.3284 79.3234Z" fill="#D1F2E7" stroke="#023B29" stroke-width="1.125" stroke-miterlimit="10"/>
<path d="M14.6797 34.451V72.6907C14.6797 80.7025 21.4677 87.1954 29.8437 87.1954C38.2198 87.1954 45.0077 80.7025 45.0077 72.6907V17.3091C45.0077 9.29727 51.7957 2.80444 60.1717 2.80444C68.5478 2.80444 75.3358 9.29727 75.3358 17.3091V55.5488" stroke="#023B29" stroke-width="1.125" stroke-miterlimit="10"/>
</svg>
