<svg width="90" height="90" viewBox="0 0 90 90" fill="none" xmlns="http://www.w3.org/2000/svg">
<path d="M66.0914 39.7426C73.3723 39.7426 79.2746 33.8585 79.2746 26.6001C79.2746 19.3416 73.3723 13.4575 66.0914 13.4575C58.8105 13.4575 52.9082 19.3416 52.9082 26.6001C52.9082 33.8585 58.8105 39.7426 66.0914 39.7426Z" fill="#34C493" stroke="#023B29" stroke-width="1.125" stroke-miterlimit="10"/>
<path d="M65.9579 39.7424H66.2295C77.7964 39.7424 87.1881 49.1052 87.1881 60.6365V76.5416H45.002V60.6365C45.002 49.1052 54.3937 39.7424 65.9606 39.7424H65.9579Z" fill="#6DD6B2" stroke="#023B29" stroke-width="1.125" stroke-miterlimit="10"/>
<path d="M23.9039 39.7426C31.1848 39.7426 37.0871 33.8585 37.0871 26.6001C37.0871 19.3416 31.1848 13.4575 23.9039 13.4575C16.623 13.4575 10.7207 19.3416 10.7207 26.6001C10.7207 33.8585 16.623 39.7426 23.9039 39.7426Z" fill="#6DD6B2" stroke="#023B29" stroke-width="1.125" stroke-miterlimit="10"/>
<path d="M23.7711 39.7424H24.0427C35.6096 39.7424 45.0013 49.1052 45.0013 60.6365V76.5416H2.8125V60.6365C2.8125 49.1052 12.2042 39.7424 23.7711 39.7424Z" fill="#A7E6D0" stroke="#023B29" stroke-width="1.125" stroke-miterlimit="10"/>
<path d="M44.9976 39.7426C52.2785 39.7426 58.1808 33.8585 58.1808 26.6001C58.1808 19.3416 52.2785 13.4575 44.9976 13.4575C37.7168 13.4575 31.8145 19.3416 31.8145 26.6001C31.8145 33.8585 37.7168 39.7426 44.9976 39.7426Z" fill="#D1F2E7" stroke="#023B29" stroke-width="1.125" stroke-miterlimit="10"/>
<path d="M44.8629 39.7424H45.1345C56.7014 39.7424 66.0931 49.1052 66.0931 60.6365V76.5416H23.9043V60.6365C23.9043 49.1052 33.296 39.7424 44.8629 39.7424Z" fill="#A7E6D0" stroke="#023B29" stroke-width="1.125" stroke-miterlimit="10"/>
</svg>
