<svg width="113" height="113" viewBox="0 0 113 113" fill="none" xmlns="http://www.w3.org/2000/svg">
<rect width="92" height="92" fill="white" style="mix-blend-mode:multiply"/>
<path d="M70.0388 89.1249H67.9688V67.5624C67.9688 57.3504 61.0285 48.5759 51.0868 46.2184C50.6555 46.1149 50.3364 45.7498 50.2961 45.3099C50.253 44.8672 50.5003 44.4474 50.9056 44.2663C55.267 42.3257 58.0816 37.9959 58.0816 33.2378C58.0816 26.5793 52.6651 21.1599 46.0066 21.1599C39.3481 21.1599 33.9288 26.5764 33.9288 33.2378C33.9288 37.9959 36.7463 42.3285 41.1048 44.2663C41.5101 44.4474 41.7574 44.8672 41.7143 45.3099C41.674 45.7498 41.3549 46.1178 40.9236 46.2184C30.9819 48.5759 24.0416 57.3504 24.0416 67.5624V89.1249H21.9688V67.5624C21.9688 57.2354 28.4576 48.2482 38.0256 44.9103C34.2134 42.3027 31.8559 37.9499 31.8559 33.2349C31.8559 27.5884 35.1823 22.7009 39.9806 20.4354C40.5441 19.0238 40.8288 17.5288 40.8288 15.9878C40.8288 9.32927 35.4123 3.9099 28.7538 3.9099C22.0953 3.9099 16.6759 9.3264 16.6759 15.9878C16.6759 20.7488 19.4934 25.0785 23.8519 27.0163C24.2601 27.1974 24.5016 27.6172 24.4614 28.0599C24.4211 28.4998 24.102 28.8678 23.6708 28.9684C13.729 31.3259 6.78875 40.1004 6.78875 50.3124V71.8749H4.71875V50.3124C4.71875 39.9854 11.2076 30.9982 20.7756 27.6603C16.9634 25.0527 14.6088 20.6999 14.6088 15.9878C14.6088 8.1879 20.9539 1.84277 28.7538 1.84277C36.5536 1.84277 42.8988 8.1879 42.8988 15.9878C42.8988 17.201 42.7493 18.3913 42.4474 19.5441C44.7215 18.9548 47.286 18.9548 49.5573 19.5441C49.2583 18.3913 49.1059 17.201 49.1059 15.9878C49.1059 8.1879 55.4539 1.84277 63.2538 1.84277C71.0536 1.84277 77.4016 8.1879 77.4016 15.9878C77.4016 20.7028 75.0441 25.0555 71.2319 27.6632C80.8028 31.001 87.2916 39.9883 87.2916 50.3153V71.8749H85.2188V50.3124C85.2188 40.1004 78.2785 31.3259 68.3368 28.9684C67.9055 28.8649 67.5864 28.4998 67.5461 28.0599C67.503 27.6172 67.7503 27.1974 68.1556 27.0163C72.5141 25.0757 75.3288 20.7459 75.3288 15.9878C75.3288 9.32927 69.9123 3.9099 63.2538 3.9099C56.5953 3.9099 51.1788 9.3264 51.1788 15.9878C51.1788 17.5288 51.4634 19.0238 52.0269 20.4383C56.8253 22.7067 60.1516 27.5913 60.1516 33.2378C60.1516 37.9528 57.7941 42.3055 53.9819 44.9132C63.5528 48.251 70.0416 57.2383 70.0416 67.5653L70.0388 89.1249Z" fill="#474747"/>
<circle cx="82.5" cy="82.5" r="29.5" fill="#F4F4F4"/>
<circle cx="82.5" cy="82.5" r="29.5" fill="#C8ECD4" fill-opacity="0.9"/>
<circle cx="82.5" cy="82.5" r="29.5" stroke="#46C66D" stroke-width="2"/>
<rect width="40" height="39.1667" transform="translate(62 62)" fill="white" style="mix-blend-mode:multiply"/>
<path d="M98.0138 94.8174L92.6013 91.7575L93.05 90.995L98.4625 94.0549L98.0138 94.8174ZM65.9875 94.8174L65.5375 94.0549L70.95 90.995L71.4 91.7575L65.9875 94.8174ZM100.75 85.6965H94.5V84.8152H100.75V85.6965ZM69.5 85.6965H63.25V84.8152H69.5V85.6965ZM82.225 85.6377L81.7763 84.8752L98.0262 75.6955L98.475 76.4593L82.225 85.6377ZM70.95 79.5179L65.5375 76.458L65.9875 75.6943L71.4 78.7542L70.95 79.5179ZM88.64 74.8767L87.8612 74.4361L90.9862 69.1363L91.765 69.577L88.64 74.8767ZM75.36 74.8767L72.235 69.577L73.015 69.1363L76.14 74.4361L75.36 74.8767ZM82.45 73.0163H81.55V66.8965H82.45V73.0163Z" fill="#00A044"/>
</svg>
