<svg width="16" height="16" viewBox="0 0 16 16" fill="none" xmlns="http://www.w3.org/2000/svg">
<rect width="16" height="16" fill="white" style="mix-blend-mode:multiply"/>
<path d="M3 14.9999H13C13.2652 14.9999 13.5196 14.8945 13.7071 14.707C13.8946 14.5194 14 14.2651 14 13.9999V10.9999C14 10.7346 13.8946 10.4803 13.7071 10.2928C13.5196 10.1052 13.2652 9.99987 13 9.99987H3C2.73478 9.99987 2.48043 10.1052 2.29289 10.2928C2.10536 10.4803 2 10.7346 2 10.9999V13.9999C2 14.2651 2.10536 14.5194 2.29289 14.707C2.48043 14.8945 2.73478 14.9999 3 14.9999ZM3 10.9999H13V13.9999H3V10.9999Z" fill="#000000"/>
<path d="M4.5 12.9999C4.77614 12.9999 5 12.776 5 12.4999C5 12.2237 4.77614 11.9999 4.5 11.9999C4.22386 11.9999 4 12.2237 4 12.4999C4 12.776 4.22386 12.9999 4.5 12.9999Z" fill="#000000"/>
<path d="M8 7.99987C8.41421 7.99987 8.75 7.66408 8.75 7.24987C8.75 6.83565 8.41421 6.49987 8 6.49987C7.58579 6.49987 7.25 6.83565 7.25 7.24987C7.25 7.66408 7.58579 7.99987 8 7.99987Z" fill="#000000"/>
<path d="M5.3916 5.16612C5.71992 4.7992 6.12196 4.50567 6.57144 4.30471C7.02093 4.10375 7.50776 3.99987 8.00012 3.99987C8.49249 3.99987 8.97932 4.10375 9.42881 4.30471C9.87829 4.50567 10.2803 4.7992 10.6087 5.16612L9.86365 5.83312C9.62916 5.57093 9.34197 5.36118 9.02087 5.21758C8.69977 5.07397 8.35198 4.99974 8.00023 4.99974C7.64847 4.99974 7.30068 5.07397 6.97958 5.21758C6.65848 5.36118 6.37129 5.57093 6.1368 5.83312L5.3916 5.16612Z" fill="#000000"/>
<path d="M3.5996 3.69957C4.11202 3.0166 4.77639 2.46229 5.5401 2.08052C6.30382 1.69875 7.14593 1.5 7.99975 1.5C8.85357 1.5 9.69568 1.69875 10.4594 2.08052C11.2231 2.46229 11.8875 3.0166 12.3999 3.69957L11.6 4.29987C11.1808 3.74095 10.6372 3.28731 10.0123 2.97488C9.38734 2.66244 8.69826 2.4998 7.99959 2.49983C7.30092 2.49985 6.61185 2.66254 5.98695 2.97502C5.36205 3.28749 4.81848 3.74117 4.3993 4.30012L3.5996 3.69957Z" fill="#000000"/>
</svg>
